<svg width="100%" height="auto" viewBox="0 0 582 828" fill="none" xmlns="http://www.w3.org/2000/svg">
<rect width="" height="" fill="#D41E21"/>
<text fill="#FFEACC" xml:space="preserve" style="white-space: pre" font-family="Lato" font-size="36" font-weight="900" letter-spacing="0px"><tspan x="89.2578" y="419.432">Si &#x164;in-pchingovo my&#x161;len&#xed; &#x2028;</tspan><tspan x="157.496" y="462.432">jako nov&#xe9; dogma&#10;</tspan></text>
<text fill="#FFEACC" xml:space="preserve" style="white-space: pre" font-family="Lato" font-size="24" font-style="italic" font-weight="500" letter-spacing="0px"><tspan x="294.5" y="501.432">&#10;</tspan><tspan x="132.336" y="540.432">Bude &#x201e;Si &#x164;in-pchingovo my&#x161;len&#xed;&#x201c; &#x2028;</tspan><tspan x="150.207" y="569.432">zaneseno do stanov KS &#x10c;&#xed;ny?</tspan></text>
<path fill-rule="evenodd" clip-rule="evenodd" d="M209.039 286.073C208.861 286.364 208.676 286.578 208.482 286.714C208.288 286.851 208.046 286.921 207.756 286.921C207.449 286.921 207.106 286.791 206.727 286.534C206.347 286.275 205.879 285.988 205.322 285.673C204.766 285.359 204.108 285.068 203.349 284.803C202.591 284.537 201.688 284.403 200.638 284.403C199.669 284.403 198.818 284.524 198.084 284.765C197.35 285.008 196.732 285.347 196.232 285.783C195.731 286.219 195.356 286.731 195.106 287.32C194.856 287.909 194.732 288.551 194.732 289.245C194.732 290.132 194.965 290.871 195.433 291.46C195.901 292.049 196.518 292.554 197.285 292.973C198.052 293.393 198.927 293.759 199.912 294.075C200.896 294.39 201.901 294.724 202.926 295.079C203.95 295.435 204.955 295.839 205.939 296.29C206.924 296.741 207.799 297.315 208.566 298.009C209.333 298.703 209.951 299.55 210.419 300.551C210.887 301.551 211.121 302.77 211.121 304.206C211.121 305.755 210.855 307.208 210.321 308.563C209.789 309.919 209.019 311.102 208.01 312.11C207.001 313.12 205.758 313.914 204.282 314.495C202.805 315.077 201.122 315.367 199.234 315.367C198.12 315.367 197.035 315.258 195.978 315.04C194.921 314.821 193.912 314.516 192.952 314.12C191.991 313.724 191.091 313.244 190.252 312.679C189.413 312.114 188.663 311.486 188 310.791L189.647 308.08C189.792 307.854 189.978 307.676 190.204 307.547C190.429 307.418 190.679 307.354 190.954 307.354C191.325 307.354 191.737 307.527 192.189 307.874C192.64 308.222 193.185 308.6 193.824 309.012C194.461 309.424 195.231 309.802 196.135 310.15C197.039 310.497 198.12 310.67 199.379 310.67C201.429 310.67 203.015 310.17 204.136 309.17C205.258 308.169 205.818 306.788 205.818 305.029C205.818 304.045 205.584 303.242 205.117 302.62C204.649 301.999 204.032 301.479 203.265 301.059C202.498 300.64 201.622 300.284 200.638 299.994C199.654 299.703 198.653 299.393 197.636 299.062C196.62 298.732 195.618 298.343 194.634 297.9C193.65 297.456 192.774 296.875 192.007 296.157C191.241 295.439 190.623 294.551 190.155 293.494C189.687 292.437 189.454 291.117 189.454 289.535C189.454 288.276 189.699 287.058 190.191 285.88C190.684 284.702 191.402 283.657 192.346 282.744C193.291 281.833 194.457 281.102 195.845 280.554C197.232 280.005 198.814 279.73 200.59 279.73C202.591 279.73 204.427 280.045 206.098 280.675C207.768 281.305 209.208 282.2 210.419 283.362L209.039 286.073Z" fill="#FFEACC"/>
<mask id="mask0_0_10335" style="mask-type:luminance" maskUnits="userSpaceOnUse" x="188" y="142" width="210" height="190">
<path fill-rule="evenodd" clip-rule="evenodd" d="M188 331.572H397.554V142H188V331.572Z" fill="white"/>
</mask>
<g mask="url(#mask0_0_10335)">
<path fill-rule="evenodd" clip-rule="evenodd" d="M217.222 314.979H222.911V280.117H217.222V314.979Z" fill="#FFEACC"/>
<path fill-rule="evenodd" clip-rule="evenodd" d="M234.76 280.154C234.93 280.178 235.088 280.223 235.233 280.287C235.378 280.352 235.515 280.449 235.645 280.578C235.773 280.708 235.911 280.869 236.056 281.062L255.229 305.683C255.181 305.183 255.145 304.69 255.121 304.206C255.097 303.722 255.084 303.27 255.084 302.851V280.118H260.047V314.98H257.166C256.731 314.98 256.359 314.903 256.053 314.749C255.745 314.597 255.455 314.343 255.181 313.987L236.031 289.39C236.08 289.859 236.116 290.322 236.141 290.782C236.165 291.243 236.177 291.666 236.177 292.053V314.98H231.189V280.118H234.143C234.385 280.118 234.591 280.13 234.76 280.154Z" fill="#FFEACC"/>
<path fill-rule="evenodd" clip-rule="evenodd" d="M295.32 297.549C295.32 295.548 295.05 293.747 294.509 292.15C293.968 290.553 293.193 289.196 292.185 288.083C291.176 286.969 289.954 286.113 288.517 285.517C287.08 284.92 285.467 284.621 283.675 284.621C281.9 284.621 280.294 284.92 278.857 285.517C277.422 286.113 276.195 286.969 275.178 288.083C274.161 289.196 273.378 290.553 272.83 292.15C272.281 293.747 272.006 295.548 272.006 297.549C272.006 299.566 272.281 301.374 272.83 302.971C273.378 304.569 274.161 305.921 275.178 307.026C276.195 308.132 277.422 308.979 278.857 309.568C280.294 310.158 281.9 310.453 283.675 310.453C285.467 310.453 287.08 310.158 288.517 309.568C289.954 308.979 291.176 308.132 292.185 307.026C293.193 305.921 293.968 304.569 294.509 302.971C295.05 301.374 295.32 299.566 295.32 297.549ZM301.107 297.549C301.107 300.131 300.686 302.512 299.848 304.69C299.008 306.869 297.825 308.745 296.3 310.319C294.775 311.892 292.943 313.123 290.805 314.011C288.666 314.899 286.291 315.343 283.675 315.343C281.076 315.343 278.709 314.899 276.57 314.011C274.431 313.123 272.595 311.892 271.062 310.319C269.528 308.745 268.343 306.869 267.503 304.69C266.664 302.512 266.245 300.131 266.245 297.549C266.245 294.966 266.664 292.586 267.503 290.407C268.343 288.229 269.528 286.348 271.062 284.765C272.595 283.184 274.431 281.95 276.57 281.061C278.709 280.174 281.076 279.73 283.675 279.73C286.291 279.73 288.666 280.174 290.805 281.061C292.943 281.95 294.775 283.184 296.3 284.765C297.825 286.348 299.008 288.229 299.848 290.407C300.686 292.586 301.107 294.966 301.107 297.549Z" fill="#FFEACC"/>
<path fill-rule="evenodd" clip-rule="evenodd" d="M312.968 297.887H318.149C319.407 297.887 320.517 297.726 321.478 297.403C322.438 297.08 323.237 296.624 323.874 296.035C324.512 295.446 324.993 294.732 325.315 293.892C325.638 293.054 325.799 292.117 325.799 291.084C325.799 290.067 325.641 289.155 325.326 288.349C325.012 287.542 324.54 286.856 323.911 286.291C323.281 285.727 322.487 285.294 321.526 284.995C320.566 284.698 319.44 284.548 318.149 284.548H312.968V297.887ZM312.968 302.366V314.979H307.303V280.117H318.149C320.424 280.117 322.398 280.384 324.068 280.916C325.739 281.45 327.118 282.195 328.208 283.155C329.297 284.116 330.108 285.27 330.641 286.618C331.174 287.965 331.44 289.454 331.44 291.084C331.44 292.746 331.157 294.268 330.593 295.647C330.027 297.027 329.189 298.214 328.075 299.207C326.961 300.199 325.578 300.973 323.922 301.531C322.268 302.087 320.344 302.366 318.149 302.366H312.968Z" fill="#FFEACC"/>
<path fill-rule="evenodd" clip-rule="evenodd" d="M355.092 286.073C354.914 286.364 354.729 286.578 354.535 286.714C354.342 286.851 354.099 286.921 353.809 286.921C353.502 286.921 353.159 286.791 352.78 286.534C352.4 286.275 351.932 285.988 351.376 285.673C350.819 285.359 350.161 285.068 349.402 284.803C348.644 284.537 347.741 284.403 346.691 284.403C345.723 284.403 344.871 284.524 344.138 284.765C343.403 285.008 342.785 285.347 342.285 285.783C341.785 286.219 341.409 286.731 341.16 287.32C340.909 287.909 340.785 288.551 340.785 289.245C340.785 290.132 341.018 290.871 341.486 291.46C341.954 292.049 342.572 292.554 343.338 292.973C344.105 293.393 344.98 293.759 345.965 294.075C346.95 294.39 347.954 294.724 348.98 295.079C350.004 295.435 351.009 295.839 351.993 296.29C352.977 296.741 353.853 297.315 354.62 298.009C355.387 298.703 356.004 299.55 356.472 300.551C356.94 301.551 357.174 302.77 357.174 304.206C357.174 305.755 356.908 307.208 356.375 308.563C355.842 309.919 355.072 311.102 354.063 312.11C353.054 313.12 351.812 313.914 350.335 314.495C348.858 315.077 347.175 315.367 345.287 315.367C344.173 315.367 343.088 315.258 342.031 315.04C340.974 314.821 339.965 314.516 339.005 314.12C338.044 313.724 337.145 313.244 336.305 312.679C335.466 312.114 334.716 311.486 334.053 310.791L335.701 308.08C335.845 307.854 336.032 307.676 336.257 307.547C336.483 307.418 336.732 307.354 337.007 307.354C337.378 307.354 337.79 307.527 338.242 307.874C338.694 308.222 339.239 308.6 339.877 309.012C340.514 309.424 341.284 309.802 342.188 310.15C343.092 310.497 344.173 310.67 345.432 310.67C347.482 310.67 349.068 310.17 350.19 309.17C351.311 308.169 351.872 306.788 351.872 305.029C351.872 304.045 351.638 303.242 351.17 302.62C350.702 301.999 350.085 301.479 349.318 301.059C348.551 300.64 347.675 300.284 346.691 299.994C345.707 299.703 344.706 299.393 343.69 299.062C342.673 298.732 341.672 298.343 340.687 297.9C339.703 297.456 338.827 296.875 338.061 296.157C337.294 295.439 336.676 294.551 336.208 293.494C335.74 292.437 335.507 291.117 335.507 289.535C335.507 288.276 335.752 287.058 336.245 285.88C336.737 284.702 337.455 283.657 338.4 282.744C339.344 281.833 340.51 281.102 341.898 280.554C343.286 280.005 344.868 279.73 346.643 279.73C348.644 279.73 350.48 280.045 352.151 280.675C353.821 281.305 355.261 282.2 356.472 283.362L355.092 286.073Z" fill="#FFEACC"/>
<path fill-rule="evenodd" clip-rule="evenodd" d="M363.274 314.979H368.963V280.117H363.274V314.979Z" fill="#FFEACC"/>
<path fill-rule="evenodd" clip-rule="evenodd" d="M395.472 286.073C395.294 286.364 395.109 286.578 394.915 286.714C394.722 286.851 394.479 286.921 394.189 286.921C393.882 286.921 393.539 286.791 393.16 286.534C392.78 286.275 392.312 285.988 391.755 285.673C391.199 285.359 390.541 285.068 389.782 284.803C389.024 284.537 388.121 284.403 387.071 284.403C386.102 284.403 385.251 284.524 384.518 284.765C383.783 285.008 383.165 285.347 382.665 285.783C382.165 286.219 381.789 286.731 381.54 287.32C381.289 287.909 381.165 288.551 381.165 289.245C381.165 290.132 381.398 290.871 381.866 291.46C382.334 292.049 382.951 292.554 383.718 292.973C384.485 293.393 385.36 293.759 386.345 294.075C387.329 294.39 388.334 294.724 389.359 295.079C390.384 295.435 391.388 295.839 392.373 296.29C393.357 296.741 394.232 297.315 394.999 298.009C395.766 298.703 396.384 299.55 396.852 300.551C397.32 301.551 397.554 302.77 397.554 304.206C397.554 305.755 397.288 307.208 396.755 308.563C396.222 309.919 395.452 311.102 394.443 312.11C393.434 313.12 392.191 313.914 390.715 314.495C389.238 315.077 387.555 315.367 385.667 315.367C384.553 315.367 383.468 315.258 382.411 315.04C381.354 314.821 380.345 314.516 379.385 314.12C378.424 313.724 377.525 313.244 376.685 312.679C375.846 312.114 375.096 311.486 374.433 310.791L376.081 308.08C376.225 307.854 376.411 307.676 376.637 307.547C376.862 307.418 377.112 307.354 377.387 307.354C377.758 307.354 378.17 307.527 378.622 307.874C379.073 308.222 379.618 308.6 380.257 309.012C380.894 309.424 381.664 309.802 382.568 310.15C383.472 310.497 384.553 310.67 385.812 310.67C387.862 310.67 389.448 310.17 390.569 309.17C391.691 308.169 392.251 306.788 392.251 305.029C392.251 304.045 392.017 303.242 391.55 302.62C391.082 301.999 390.465 301.479 389.698 301.059C388.931 300.64 388.055 300.284 387.071 299.994C386.087 299.703 385.086 299.393 384.07 299.062C383.053 298.732 382.052 298.343 381.067 297.9C380.083 297.456 379.207 296.875 378.44 296.157C377.674 295.439 377.056 294.551 376.588 293.494C376.12 292.437 375.887 291.117 375.887 289.535C375.887 288.276 376.132 287.058 376.624 285.88C377.117 284.702 377.835 283.657 378.78 282.744C379.724 281.833 380.89 281.102 382.278 280.554C383.666 280.005 385.248 279.73 387.023 279.73C389.024 279.73 390.86 280.045 392.531 280.675C394.201 281.305 395.641 282.2 396.852 283.362L395.472 286.073Z" fill="#FFEACC"/>
<path fill-rule="evenodd" clip-rule="evenodd" d="M283.796 199.319C292.209 192.751 300.533 186.251 308.995 179.645C306.547 177.924 304.167 176.249 301.768 174.563C293.361 181.127 285.005 187.649 276.559 194.243C278.989 195.947 281.334 197.592 283.796 199.319Z" fill="#FFEACC"/>
<path fill-rule="evenodd" clip-rule="evenodd" d="M319.865 199.57C317.41 197.787 315.053 196.076 312.698 194.366C317.822 190.406 333.66 177.888 337.289 175.358C343.292 170.687 352.767 172.027 357.41 177.675C360.838 181.845 362.137 186.509 360.114 191.696C358.039 197.013 354.091 200.201 348.468 201.241C344.294 202.012 340.506 201.2 337.136 198.491C335.175 196.916 333.08 195.506 330.957 193.957C333.169 192.284 338.108 188.345 338.108 188.345C338.108 188.345 341.279 190.917 342.519 191.826C345.152 193.755 348.753 193.373 351.003 190.915C353.144 188.576 353.226 185.622 351.214 183.235C349.086 180.711 345.341 180.028 342.764 181.937C338.977 184.742 335.334 187.741 331.601 190.621C327.716 193.619 323.798 196.574 319.865 199.57Z" fill="#FFEACC"/>
<path fill-rule="evenodd" clip-rule="evenodd" d="M265.689 174.475C268.145 176.257 270.502 177.969 272.856 179.679C267.732 183.639 251.894 196.157 248.265 198.687C242.262 203.358 232.787 202.018 228.145 196.37C224.716 192.2 223.417 187.536 225.44 182.349C227.514 177.032 231.462 173.844 237.086 172.804C241.26 172.032 245.048 172.845 248.418 175.554C250.379 177.129 252.474 178.539 254.597 180.088C252.385 181.761 247.446 185.7 247.446 185.7C247.446 185.7 244.275 183.128 243.035 182.219C240.403 180.29 236.801 180.672 234.551 183.13C232.41 185.469 232.329 188.423 234.34 190.81C236.468 193.334 240.212 194.017 242.79 192.108C246.578 189.303 250.22 186.304 253.953 183.424C257.838 180.426 261.756 177.471 265.689 174.475Z" fill="#FFEACC"/>
<path fill-rule="evenodd" clip-rule="evenodd" d="M291.114 179.981C288.697 181.798 286.439 183.494 284.072 185.272C282.872 184.395 281.686 183.524 280.496 182.659C274.47 178.284 268.428 173.93 262.418 169.532C255.786 164.68 253.991 155.883 258.216 149.137C262.485 142.321 271.117 140.003 278.341 143.865C280.118 144.815 281.657 146.212 283.303 147.407C285.863 149.268 288.422 151.132 291.144 153.113C288.691 154.958 286.369 156.704 284.021 158.47C281.071 156.312 278.173 154.221 275.307 152.085C271.88 149.532 267.907 149.936 265.579 153.116C263.275 156.262 264.179 160.358 267.607 162.838C275.403 168.48 283.161 174.176 291.114 179.981Z" fill="#FFEACC"/>
<path fill-rule="evenodd" clip-rule="evenodd" d="M294.333 193.905C296.75 192.089 299.008 190.392 301.375 188.614C302.575 189.491 303.761 190.362 304.951 191.226C310.977 195.601 317.019 199.957 323.029 204.353C329.661 209.206 331.456 218.003 327.231 224.749C322.962 231.565 314.33 233.883 307.106 230.021C305.329 229.071 303.79 227.674 302.144 226.479C299.584 224.618 297.025 222.754 294.303 220.773C296.757 218.928 299.078 217.182 301.426 215.416C304.376 217.574 307.274 219.665 310.14 221.8C313.567 224.353 317.54 223.95 319.868 220.77C322.172 217.624 321.268 213.528 317.84 211.048C310.044 205.405 302.286 199.71 294.333 193.905Z" fill="#FFEACC"/>
<path fill-rule="evenodd" clip-rule="evenodd" d="M319.664 171.971C317.243 170.212 314.918 168.523 312.419 166.708C314.424 165.271 316.336 163.912 318.236 162.536C320.83 160.659 321.784 157.502 320.646 154.611C319.543 151.807 316.775 149.993 313.794 150.49C312.445 150.714 311.062 151.423 309.947 152.251C301.577 158.471 293.27 164.776 284.941 171.052C284.546 171.349 284.136 171.627 283.635 171.984C281.279 170.275 278.922 168.565 276.422 166.751C277.338 166.09 278.137 165.535 278.912 164.949C287.629 158.362 296.355 151.786 305.053 145.174C311.859 140 321.434 141.298 326.509 148.13C331.526 154.883 329.946 164.625 323.038 169.543C321.947 170.32 320.863 171.108 319.664 171.971Z" fill="#FFEACC"/>
<path fill-rule="evenodd" clip-rule="evenodd" d="M265.697 201.912C268.118 203.671 270.443 205.36 272.942 207.175C270.936 208.612 269.025 209.97 267.124 211.347C264.53 213.224 263.577 216.38 264.715 219.272C265.818 222.076 268.586 223.889 271.567 223.393C272.916 223.168 274.298 222.46 275.414 221.632C283.784 215.412 292.091 209.107 300.42 202.83C300.815 202.533 301.225 202.256 301.726 201.899C304.082 203.608 306.438 205.318 308.938 207.132C308.023 207.793 307.224 208.348 306.448 208.934C297.732 215.521 289.006 222.097 280.308 228.709C273.502 233.883 263.927 232.585 258.851 225.753C253.835 219 255.415 209.259 262.322 204.34C263.414 203.562 264.497 202.775 265.697 201.912Z" fill="#FFEACC"/>
<path fill-rule="evenodd" clip-rule="evenodd" d="M301.616 161.39C310.249 167.666 318.792 173.876 327.475 180.189C325.088 181.993 322.766 183.747 320.427 185.515C311.799 179.244 303.225 173.011 294.558 166.712C296.927 164.925 299.215 163.2 301.616 161.39Z" fill="#FFEACC"/>
<path fill-rule="evenodd" clip-rule="evenodd" d="M290.954 207.253C288.586 209.032 286.287 210.759 283.96 212.508C275.373 206.281 266.817 200.078 258.134 193.783C260.524 191.986 262.846 190.24 265.181 188.484C273.803 194.762 282.339 200.98 290.954 207.253Z" fill="#FFEACC"/>
<path fill-rule="evenodd" clip-rule="evenodd" d="M379.186 262.601C379.186 263.303 378.618 263.872 377.915 263.872H208.646C207.944 263.872 207.376 263.303 207.376 262.601C207.376 261.899 207.944 261.33 208.646 261.33H377.915C378.618 261.33 379.186 261.899 379.186 262.601Z" fill="#FFEACC"/>
<path fill-rule="evenodd" clip-rule="evenodd" d="M201.165 322.124H201.835C201.875 322.124 201.925 322.13 201.982 322.139C202.039 322.151 202.087 322.184 202.129 322.243L202.757 323.021C202.767 323.038 202.777 323.054 202.788 323.07C202.797 323.085 202.809 323.1 202.818 323.114C202.825 323.1 202.834 323.085 202.844 323.07C202.854 323.054 202.867 323.038 202.881 323.021L203.504 322.248C203.548 322.186 203.6 322.151 203.656 322.139C203.713 322.13 203.761 322.124 203.803 322.124H204.472L203.247 323.521H202.391L201.165 322.124ZM204.762 329.959C204.815 329.959 204.863 329.982 204.905 330.026L205.301 330.454C205 330.804 204.632 331.077 204.202 331.273C203.771 331.469 203.25 331.566 202.638 331.566C202.109 331.566 201.629 331.474 201.196 331.291C200.764 331.108 200.394 330.85 200.089 330.518C199.782 330.187 199.546 329.789 199.377 329.326C199.209 328.862 199.125 328.352 199.125 327.796C199.125 327.24 199.213 326.73 199.388 326.266C199.563 325.803 199.809 325.404 200.127 325.071C200.445 324.738 200.826 324.48 201.267 324.295C201.71 324.112 202.2 324.02 202.737 324.02C203.261 324.02 203.725 324.104 204.127 324.272C204.528 324.441 204.883 324.669 205.187 324.958L204.857 325.416C204.837 325.45 204.811 325.478 204.779 325.501C204.745 325.523 204.701 325.534 204.647 325.534C204.585 325.534 204.51 325.501 204.42 325.434C204.332 325.367 204.213 325.292 204.07 325.21C203.926 325.128 203.747 325.053 203.53 324.986C203.313 324.919 203.047 324.885 202.731 324.885C202.35 324.885 202.001 324.952 201.686 325.084C201.37 325.216 201.097 325.407 200.868 325.658C200.64 325.908 200.463 326.215 200.335 326.575C200.208 326.935 200.144 327.343 200.144 327.796C200.144 328.257 200.211 328.666 200.344 329.027C200.475 329.388 200.655 329.692 200.884 329.942C201.112 330.19 201.383 330.38 201.693 330.511C202.004 330.641 202.34 330.707 202.7 330.707C202.919 330.707 203.119 330.693 203.294 330.668C203.472 330.642 203.635 330.601 203.785 330.546C203.934 330.492 204.073 330.422 204.202 330.338C204.33 330.254 204.458 330.154 204.585 330.037C204.643 329.985 204.701 329.959 204.762 329.959Z" fill="#FFEACC"/>
<path fill-rule="evenodd" clip-rule="evenodd" d="M206.662 331.484H207.661V324.102H206.662V331.484ZM209.125 321.944L207.445 323.417C207.393 323.465 207.344 323.494 207.296 323.505C207.247 323.515 207.19 323.52 207.12 323.52H206.461L207.651 322.109C207.708 322.033 207.768 321.987 207.829 321.97C207.889 321.952 207.975 321.944 208.089 321.944H209.125Z" fill="#FFEACC"/>
<path fill-rule="evenodd" clip-rule="evenodd" d="M210.371 324.111C210.402 324.116 210.429 324.124 210.453 324.136C210.477 324.149 210.502 324.166 210.525 324.187C210.549 324.21 210.575 324.238 210.603 324.273L214.873 329.831C214.866 329.742 214.86 329.656 214.855 329.571C214.85 329.488 214.848 329.407 214.848 329.332V324.103H215.723V331.485H215.223C215.144 331.485 215.078 331.471 215.025 331.444C214.971 331.416 214.92 331.37 214.868 331.304L210.598 325.746C210.604 325.832 210.61 325.916 210.613 325.998C210.617 326.081 210.618 326.157 210.618 326.226V331.485H209.743V324.103H210.258C210.302 324.103 210.34 324.105 210.371 324.111Z" fill="#FFEACC"/>
<path fill-rule="evenodd" clip-rule="evenodd" d="M218.968 328.744H221.724L220.564 325.74C220.528 325.651 220.491 325.549 220.453 325.432C220.418 325.315 220.381 325.189 220.343 325.056C220.309 325.189 220.273 325.316 220.237 325.434C220.202 325.553 220.165 325.657 220.127 325.746L218.968 328.744ZM223.805 331.485H223.032C222.943 331.485 222.87 331.462 222.816 331.417C222.761 331.373 222.719 331.317 222.692 331.247L222.002 329.464H218.69L217.999 331.247C217.979 331.309 217.939 331.363 217.881 331.412C217.823 331.46 217.751 331.485 217.665 331.485H216.892L219.844 324.102H220.853L223.805 331.485Z" fill="#FFEACC"/>
<path fill-rule="evenodd" clip-rule="evenodd" d="M226.18 324.102H226.978C227.068 324.102 227.139 324.124 227.194 324.169C227.249 324.214 227.29 324.27 227.318 324.339L229.399 329.547C229.443 329.664 229.487 329.791 229.528 329.928C229.569 330.066 229.608 330.208 229.646 330.357C229.677 330.208 229.712 330.066 229.752 329.928C229.791 329.791 229.833 329.664 229.878 329.547L231.954 324.339C231.975 324.28 232.015 324.227 232.075 324.176C232.136 324.127 232.208 324.102 232.294 324.102H233.092L230.084 331.484H229.188L226.18 324.102Z" fill="#FFEACC"/>
<path fill-rule="evenodd" clip-rule="evenodd" d="M237.718 327.338H238.095C238.225 327.338 238.33 327.321 238.408 327.289C238.488 327.256 238.56 327.2 238.625 327.121L241.083 324.34C241.151 324.251 241.223 324.188 241.298 324.154C241.374 324.119 241.466 324.103 241.577 324.103H242.422L239.609 327.281C239.541 327.363 239.474 327.432 239.411 327.485C239.348 327.538 239.279 327.582 239.208 327.616C239.301 327.647 239.384 327.692 239.46 327.752C239.535 327.813 239.609 327.89 239.682 327.987L242.617 331.485H241.752C241.687 331.485 241.631 331.481 241.584 331.471C241.538 331.463 241.497 331.449 241.464 331.431C241.429 331.411 241.399 331.389 241.373 331.363C241.348 331.338 241.322 331.308 241.298 331.273L238.754 328.343C238.685 328.256 238.611 328.196 238.532 328.159C238.454 328.123 238.333 328.105 238.172 328.105H237.718V331.485H236.725V324.103H237.718V327.338Z" fill="#FFEACC"/>
<path fill-rule="evenodd" clip-rule="evenodd" d="M249.098 327.796C249.098 327.343 249.036 326.936 248.912 326.576C248.789 326.215 248.614 325.91 248.387 325.661C248.161 325.412 247.886 325.221 247.563 325.086C247.24 324.953 246.879 324.885 246.481 324.885C246.086 324.885 245.727 324.953 245.405 325.086C245.082 325.221 244.806 325.412 244.577 325.661C244.349 325.91 244.173 326.215 244.05 326.576C243.926 326.936 243.863 327.343 243.863 327.796C243.863 328.25 243.926 328.656 244.05 329.014C244.173 329.374 244.349 329.678 244.577 329.926C244.806 330.175 245.082 330.366 245.405 330.497C245.727 330.63 246.086 330.697 246.481 330.697C246.879 330.697 247.24 330.63 247.563 330.497C247.886 330.366 248.161 330.175 248.387 329.926C248.614 329.678 248.789 329.374 248.912 329.014C249.036 328.656 249.098 328.25 249.098 327.796ZM250.123 327.796C250.123 328.35 250.036 328.857 249.86 329.319C249.685 329.78 249.438 330.177 249.118 330.511C248.799 330.844 248.415 331.103 247.967 331.286C247.519 331.47 247.024 331.562 246.481 331.562C245.938 331.562 245.444 331.47 244.997 331.286C244.551 331.103 244.168 330.844 243.849 330.511C243.529 330.177 243.282 329.78 243.107 329.319C242.932 328.857 242.843 328.35 242.843 327.796C242.843 327.243 242.932 326.736 243.107 326.274C243.282 325.812 243.529 325.414 243.849 325.079C244.168 324.745 244.551 324.484 244.997 324.298C245.444 324.113 245.938 324.02 246.481 324.02C247.024 324.02 247.519 324.113 247.967 324.298C248.415 324.484 248.799 324.745 249.118 325.079C249.438 325.414 249.685 325.812 249.86 326.274C250.036 326.736 250.123 327.243 250.123 327.796Z" fill="#FFEACC"/>
<path fill-rule="evenodd" clip-rule="evenodd" d="M252.374 324.111C252.405 324.116 252.432 324.124 252.456 324.136C252.48 324.149 252.505 324.166 252.529 324.187C252.552 324.21 252.578 324.238 252.606 324.273L256.876 329.831C256.869 329.742 256.863 329.656 256.858 329.571C256.853 329.488 256.851 329.407 256.851 329.332V324.103H257.726V331.485H257.227C257.147 331.485 257.082 331.471 257.028 331.444C256.974 331.416 256.923 331.37 256.871 331.304L252.601 325.746C252.607 325.832 252.613 325.916 252.616 325.998C252.62 326.081 252.622 326.157 252.622 326.226V331.485H251.746V324.103H252.261C252.305 324.103 252.343 324.105 252.374 324.111Z" fill="#FFEACC"/>
<path fill-rule="evenodd" clip-rule="evenodd" d="M264.798 324.102V324.941H262.408V331.484H261.414V324.941H259.018V324.102H264.798Z" fill="#FFEACC"/>
<path fill-rule="evenodd" clip-rule="evenodd" d="M270.634 324.102V324.916H267.086V327.368H269.959V328.151H267.086V330.67H270.64L270.634 331.484H266.086V324.102H270.634Z" fill="#FFEACC"/>
<path fill-rule="evenodd" clip-rule="evenodd" d="M273.931 327.693L271.495 324.103H272.489C272.561 324.103 272.614 324.115 272.649 324.139C272.683 324.163 272.714 324.198 272.741 324.241L274.668 327.199C274.692 327.127 274.728 327.048 274.776 326.962L276.594 324.263C276.622 324.215 276.655 324.176 276.692 324.147C276.73 324.118 276.774 324.103 276.826 324.103H277.779L275.332 327.647L277.861 331.485H276.872C276.797 331.485 276.738 331.465 276.695 331.425C276.652 331.386 276.616 331.342 276.59 331.295L274.611 328.198C274.587 328.27 274.556 328.339 274.518 328.405L272.592 331.295C272.558 331.342 272.52 331.386 272.481 331.425C272.441 331.465 272.387 331.485 272.319 331.485H271.391L273.931 327.693Z" fill="#FFEACC"/>
<path fill-rule="evenodd" clip-rule="evenodd" d="M284.104 324.102V324.941H281.714V331.484H280.719V324.941H278.324V324.102H284.104Z" fill="#FFEACC"/>
<path fill-rule="evenodd" clip-rule="evenodd" d="M288.241 330.691C288.546 330.691 288.819 330.64 289.06 330.536C289.3 330.433 289.504 330.29 289.67 330.104C289.836 329.918 289.964 329.697 290.051 329.439C290.139 329.182 290.183 328.898 290.183 328.59V324.103H291.177V328.59C291.177 329.015 291.11 329.41 290.973 329.774C290.838 330.139 290.644 330.454 290.391 330.719C290.139 330.986 289.831 331.194 289.467 331.346C289.103 331.496 288.694 331.572 288.241 331.572C287.787 331.572 287.379 331.496 287.015 331.346C286.651 331.194 286.341 330.986 286.088 330.719C285.834 330.454 285.638 330.139 285.503 329.774C285.367 329.41 285.3 329.015 285.3 328.59V324.103H286.294V328.584C286.294 328.894 286.337 329.177 286.424 329.435C286.513 329.691 286.639 329.914 286.806 330.099C286.973 330.284 287.177 330.429 287.418 330.534C287.661 330.639 287.935 330.691 288.241 330.691Z" fill="#FFEACC"/>
<path fill-rule="evenodd" clip-rule="evenodd" d="M296.818 328.744H299.574L298.414 325.74C298.378 325.651 298.34 325.549 298.303 325.432C298.268 325.315 298.231 325.189 298.193 325.056C298.158 325.189 298.123 325.316 298.087 325.434C298.052 325.553 298.015 325.657 297.976 325.746L296.818 328.744ZM301.654 331.485H300.882C300.793 331.485 300.72 331.462 300.666 331.417C300.611 331.373 300.569 331.317 300.542 331.247L299.852 329.464H296.539L295.849 331.247C295.828 331.309 295.789 331.363 295.73 331.412C295.672 331.46 295.601 331.485 295.515 331.485H294.742L297.694 324.102H298.703L301.654 331.485Z" fill="#FFEACC"/>
<path fill-rule="evenodd" clip-rule="evenodd" d="M309.088 325.257C309.056 325.308 309.024 325.347 308.987 325.373C308.952 325.399 308.908 325.412 308.856 325.412C308.798 325.412 308.729 325.383 308.651 325.324C308.571 325.265 308.473 325.201 308.354 325.131C308.235 325.061 308.093 324.996 307.927 324.938C307.76 324.879 307.558 324.85 307.321 324.85C307.098 324.85 306.902 324.88 306.731 324.94C306.562 325 306.419 325.082 306.303 325.185C306.189 325.289 306.102 325.409 306.044 325.548C305.986 325.687 305.956 325.837 305.956 325.999C305.956 326.205 306.007 326.376 306.108 326.511C306.21 326.647 306.343 326.763 306.509 326.859C306.677 326.956 306.865 327.039 307.077 327.109C307.288 327.179 307.504 327.253 307.726 327.328C307.947 327.403 308.164 327.489 308.375 327.582C308.586 327.678 308.774 327.797 308.941 327.941C309.108 328.086 309.242 328.262 309.343 328.472C309.445 328.681 309.495 328.938 309.495 329.244C309.495 329.567 309.44 329.871 309.331 330.154C309.22 330.436 309.06 330.683 308.849 330.893C308.637 331.103 308.378 331.267 308.071 331.388C307.763 331.507 307.414 331.568 307.023 331.568C306.541 331.568 306.105 331.481 305.715 331.307C305.322 331.134 304.988 330.9 304.709 330.604L304.998 330.13C305.025 330.093 305.059 330.06 305.099 330.035C305.138 330.009 305.182 329.997 305.23 329.997C305.274 329.997 305.325 330.014 305.381 330.051C305.438 330.086 305.503 330.133 305.575 330.187C305.647 330.242 305.729 330.302 305.822 330.368C305.915 330.433 306.021 330.492 306.139 330.548C306.258 330.602 306.392 330.648 306.544 330.684C306.695 330.72 306.864 330.738 307.053 330.738C307.291 330.738 307.502 330.705 307.687 330.64C307.873 330.576 308.029 330.483 308.158 330.365C308.286 330.247 308.386 330.105 308.454 329.939C308.523 329.775 308.557 329.591 308.557 329.388C308.557 329.166 308.507 328.982 308.405 328.84C308.305 328.698 308.171 328.578 308.006 328.481C307.842 328.386 307.652 328.305 307.439 328.237C307.227 328.17 307.01 328.101 306.791 328.031C306.57 327.96 306.354 327.879 306.141 327.786C305.928 327.693 305.74 327.574 305.575 327.426C305.41 327.279 305.277 327.093 305.176 326.872C305.075 326.651 305.024 326.377 305.024 326.051C305.024 325.79 305.075 325.536 305.176 325.293C305.277 325.049 305.425 324.833 305.619 324.644C305.812 324.455 306.051 324.305 306.334 324.191C306.618 324.077 306.943 324.02 307.311 324.02C307.723 324.02 308.098 324.087 308.436 324.217C308.774 324.347 309.073 324.536 309.331 324.782L309.088 325.257Z" fill="#FFEACC"/>
<path fill-rule="evenodd" clip-rule="evenodd" d="M316.892 327.796C316.892 327.343 316.83 326.936 316.706 326.576C316.583 326.215 316.408 325.91 316.18 325.661C315.954 325.412 315.68 325.221 315.356 325.086C315.033 324.953 314.673 324.885 314.275 324.885C313.88 324.885 313.521 324.953 313.198 325.086C312.875 325.221 312.6 325.412 312.371 325.661C312.143 325.91 311.967 326.215 311.843 326.576C311.72 326.936 311.657 327.343 311.657 327.796C311.657 328.25 311.72 328.656 311.843 329.014C311.967 329.374 312.143 329.678 312.371 329.926C312.6 330.175 312.875 330.366 313.198 330.497C313.521 330.63 313.88 330.697 314.275 330.697C314.673 330.697 315.033 330.63 315.356 330.497C315.68 330.366 315.954 330.175 316.18 329.926C316.408 329.678 316.583 329.374 316.706 329.014C316.83 328.656 316.892 328.25 316.892 327.796ZM317.917 327.796C317.917 328.35 317.829 328.857 317.654 329.319C317.479 329.78 317.231 330.177 316.912 330.511C316.592 330.844 316.209 331.103 315.761 331.286C315.312 331.47 314.817 331.562 314.275 331.562C313.731 331.562 313.237 331.47 312.791 331.286C312.344 331.103 311.961 330.844 311.642 330.511C311.323 330.177 311.076 329.78 310.901 329.319C310.725 328.857 310.637 328.35 310.637 327.796C310.637 327.243 310.725 326.736 310.901 326.274C311.076 325.812 311.323 325.414 311.642 325.079C311.961 324.745 312.344 324.484 312.791 324.298C313.237 324.113 313.731 324.02 314.275 324.02C314.817 324.02 315.312 324.113 315.761 324.298C316.209 324.484 316.592 324.745 316.912 325.079C317.231 325.414 317.479 325.812 317.654 326.274C317.829 326.736 317.917 327.243 317.917 327.796Z" fill="#FFEACC"/>
<path fill-rule="evenodd" clip-rule="evenodd" d="M322.388 330.691C322.693 330.691 322.966 330.64 323.207 330.536C323.447 330.433 323.651 330.29 323.817 330.104C323.983 329.918 324.111 329.697 324.198 329.439C324.286 329.182 324.33 328.898 324.33 328.59V324.103H325.324V328.59C325.324 329.015 325.257 329.41 325.12 329.774C324.985 330.139 324.791 330.454 324.538 330.719C324.286 330.986 323.978 331.194 323.614 331.346C323.25 331.496 322.841 331.572 322.388 331.572C321.934 331.572 321.526 331.496 321.162 331.346C320.798 331.194 320.488 330.986 320.235 330.719C319.981 330.454 319.785 330.139 319.65 329.774C319.514 329.41 319.447 329.015 319.447 328.59V324.103H320.441V328.584C320.441 328.894 320.484 329.177 320.571 329.435C320.659 329.691 320.786 329.914 320.953 330.099C321.12 330.284 321.324 330.429 321.565 330.534C321.808 330.639 322.082 330.691 322.388 330.691Z" fill="#FFEACC"/>
<path fill-rule="evenodd" clip-rule="evenodd" d="M326.401 324.102H327.2C327.289 324.102 327.361 324.124 327.415 324.169C327.471 324.214 327.511 324.27 327.539 324.339L329.621 329.547C329.664 329.664 329.708 329.791 329.749 329.928C329.79 330.066 329.829 330.208 329.867 330.357C329.898 330.208 329.933 330.066 329.973 329.928C330.012 329.791 330.055 329.664 330.099 329.547L332.175 324.339C332.196 324.28 332.236 324.227 332.296 324.176C332.357 324.127 332.429 324.102 332.515 324.102H333.314L330.305 331.484H329.41L326.401 324.102Z" fill="#FFEACC"/>
<path fill-rule="evenodd" clip-rule="evenodd" d="M334.483 331.484H335.482V324.102H334.483V331.484Z" fill="#FFEACC"/>
<path fill-rule="evenodd" clip-rule="evenodd" d="M341.34 325.257C341.309 325.308 341.276 325.347 341.239 325.373C341.204 325.399 341.159 325.412 341.108 325.412C341.049 325.412 340.981 325.383 340.903 325.324C340.823 325.265 340.724 325.201 340.606 325.131C340.487 325.061 340.345 324.996 340.178 324.938C340.012 324.879 339.809 324.85 339.573 324.85C339.35 324.85 339.153 324.88 338.983 324.94C338.814 325 338.671 325.082 338.555 325.185C338.441 325.289 338.353 325.409 338.295 325.548C338.237 325.687 338.208 325.837 338.208 325.999C338.208 326.205 338.259 326.376 338.36 326.511C338.461 326.647 338.595 326.763 338.761 326.859C338.929 326.956 339.117 327.039 339.328 327.109C339.54 327.179 339.755 327.253 339.977 327.328C340.199 327.403 340.416 327.489 340.627 327.582C340.837 327.678 341.026 327.797 341.193 327.941C341.36 328.086 341.494 328.262 341.594 328.472C341.696 328.681 341.747 328.938 341.747 329.244C341.747 329.567 341.691 329.871 341.582 330.154C341.472 330.436 341.311 330.683 341.1 330.893C340.889 331.103 340.63 331.267 340.323 331.388C340.015 331.507 339.666 331.568 339.274 331.568C338.793 331.568 338.357 331.481 337.966 331.307C337.574 331.134 337.24 330.9 336.962 330.604L337.25 330.13C337.276 330.093 337.311 330.06 337.351 330.035C337.39 330.009 337.433 329.997 337.481 329.997C337.526 329.997 337.577 330.014 337.633 330.051C337.69 330.086 337.755 330.133 337.827 330.187C337.899 330.242 337.981 330.302 338.074 330.368C338.167 330.433 338.273 330.492 338.391 330.548C338.509 330.602 338.644 330.648 338.796 330.684C338.946 330.72 339.116 330.738 339.305 330.738C339.542 330.738 339.753 330.705 339.939 330.64C340.124 330.576 340.281 330.483 340.41 330.365C340.538 330.247 340.638 330.105 340.707 329.939C340.774 329.775 340.809 329.591 340.809 329.388C340.809 329.166 340.759 328.982 340.657 328.84C340.556 328.698 340.423 328.578 340.258 328.481C340.094 328.386 339.904 328.305 339.692 328.237C339.479 328.17 339.262 328.101 339.043 328.031C338.822 327.96 338.606 327.879 338.393 327.786C338.18 327.693 337.992 327.574 337.827 327.426C337.662 327.279 337.529 327.093 337.427 326.872C337.326 326.651 337.275 326.377 337.275 326.051C337.275 325.79 337.326 325.536 337.427 325.293C337.529 325.049 337.677 324.833 337.87 324.644C338.064 324.455 338.303 324.305 338.586 324.191C338.87 324.077 339.195 324.02 339.563 324.02C339.974 324.02 340.349 324.087 340.688 324.217C341.026 324.347 341.325 324.536 341.582 324.782L341.34 325.257Z" fill="#FFEACC"/>
<path fill-rule="evenodd" clip-rule="evenodd" d="M344.342 330.644H347.536V331.484H343.349V324.102H344.342V330.644Z" fill="#FFEACC"/>
<path fill-rule="evenodd" clip-rule="evenodd" d="M354.285 327.796C354.285 327.343 354.222 326.936 354.099 326.576C353.976 326.215 353.801 325.91 353.573 325.661C353.347 325.412 353.073 325.221 352.749 325.086C352.426 324.953 352.066 324.885 351.668 324.885C351.273 324.885 350.914 324.953 350.591 325.086C350.268 325.221 349.993 325.412 349.764 325.661C349.536 325.91 349.36 326.215 349.236 326.576C349.113 326.936 349.05 327.343 349.05 327.796C349.05 328.25 349.113 328.656 349.236 329.014C349.36 329.374 349.536 329.678 349.764 329.926C349.993 330.175 350.268 330.366 350.591 330.497C350.914 330.63 351.273 330.697 351.668 330.697C352.066 330.697 352.426 330.63 352.749 330.497C353.073 330.366 353.347 330.175 353.573 329.926C353.801 329.678 353.976 329.374 354.099 329.014C354.222 328.656 354.285 328.25 354.285 327.796ZM355.31 327.796C355.31 328.35 355.222 328.857 355.047 329.319C354.872 329.78 354.624 330.177 354.305 330.511C353.985 330.844 353.602 331.103 353.154 331.286C352.705 331.47 352.21 331.562 351.668 331.562C351.124 331.562 350.63 331.47 350.184 331.286C349.737 331.103 349.354 330.844 349.035 330.511C348.716 330.177 348.469 329.78 348.294 329.319C348.118 328.857 348.03 328.35 348.03 327.796C348.03 327.243 348.118 326.736 348.294 326.274C348.469 325.812 348.716 325.414 349.035 325.079C349.354 324.745 349.737 324.484 350.184 324.298C350.63 324.113 351.124 324.02 351.668 324.02C352.21 324.02 352.705 324.113 353.154 324.298C353.602 324.484 353.985 324.745 354.305 325.079C354.624 325.414 354.872 325.812 355.047 326.274C355.222 326.736 355.31 327.243 355.31 327.796Z" fill="#FFEACC"/>
<path fill-rule="evenodd" clip-rule="evenodd" d="M360.708 325.257C360.676 325.308 360.643 325.347 360.607 325.373C360.571 325.399 360.527 325.412 360.476 325.412C360.417 325.412 360.349 325.383 360.271 325.324C360.191 325.265 360.092 325.201 359.974 325.131C359.855 325.061 359.713 324.996 359.546 324.938C359.38 324.879 359.177 324.85 358.941 324.85C358.718 324.85 358.521 324.88 358.351 324.94C358.182 325 358.039 325.082 357.923 325.185C357.809 325.289 357.721 325.409 357.663 325.548C357.605 325.687 357.576 325.837 357.576 325.999C357.576 326.205 357.627 326.376 357.727 326.511C357.829 326.647 357.963 326.763 358.129 326.859C358.297 326.956 358.485 327.039 358.696 327.109C358.908 327.179 359.123 327.253 359.345 327.328C359.567 327.403 359.784 327.489 359.994 327.582C360.205 327.678 360.394 327.797 360.561 327.941C360.728 328.086 360.862 328.262 360.962 328.472C361.064 328.681 361.115 328.938 361.115 329.244C361.115 329.567 361.059 329.871 360.95 330.154C360.84 330.436 360.679 330.683 360.468 330.893C360.256 331.103 359.998 331.267 359.691 331.388C359.383 331.507 359.034 331.568 358.642 331.568C358.161 331.568 357.725 331.481 357.334 331.307C356.942 331.134 356.608 330.9 356.329 330.604L356.618 330.13C356.644 330.093 356.679 330.06 356.719 330.035C356.757 330.009 356.801 329.997 356.849 329.997C356.894 329.997 356.945 330.014 357.001 330.051C357.058 330.086 357.123 330.133 357.195 330.187C357.267 330.242 357.349 330.302 357.442 330.368C357.535 330.433 357.641 330.492 357.759 330.548C357.877 330.602 358.012 330.648 358.164 330.684C358.314 330.72 358.483 330.738 358.673 330.738C358.91 330.738 359.121 330.705 359.307 330.64C359.492 330.576 359.649 330.483 359.778 330.365C359.906 330.247 360.006 330.105 360.074 329.939C360.142 329.775 360.177 329.591 360.177 329.388C360.177 329.166 360.127 328.982 360.025 328.84C359.924 328.698 359.791 328.578 359.626 328.481C359.462 328.386 359.272 328.305 359.059 328.237C358.847 328.17 358.63 328.101 358.411 328.031C358.19 327.96 357.974 327.879 357.761 327.786C357.548 327.693 357.36 327.574 357.195 327.426C357.03 327.279 356.897 327.093 356.795 326.872C356.694 326.651 356.643 326.377 356.643 326.051C356.643 325.79 356.694 325.536 356.795 325.293C356.897 325.049 357.045 324.833 357.238 324.644C357.432 324.455 357.671 324.305 357.954 324.191C358.238 324.077 358.563 324.02 358.931 324.02C359.342 324.02 359.717 324.087 360.056 324.217C360.394 324.347 360.693 324.536 360.95 324.782L360.708 325.257Z" fill="#FFEACC"/>
<path fill-rule="evenodd" clip-rule="evenodd" d="M367.708 324.102V324.941H365.318V331.484H364.324V324.941H361.928V324.102H367.708Z" fill="#FFEACC"/>
<path fill-rule="evenodd" clip-rule="evenodd" d="M373.545 324.102V324.916H369.996V327.368H372.869V328.151H369.996V330.67H373.551L373.545 331.484H368.996V324.102H373.545Z" fill="#FFEACC"/>
<path fill-rule="evenodd" clip-rule="evenodd" d="M380.164 329.96C380.219 329.96 380.267 329.982 380.309 330.027L380.704 330.455C380.403 330.805 380.036 331.078 379.605 331.274C379.174 331.469 378.653 331.567 378.042 331.567C377.513 331.567 377.032 331.475 376.6 331.291C376.167 331.109 375.798 330.85 375.492 330.519C375.187 330.188 374.95 329.79 374.782 329.327C374.612 328.863 374.529 328.353 374.529 327.796C374.529 327.24 374.616 326.731 374.791 326.267C374.966 325.803 375.214 325.404 375.531 325.072C375.848 324.739 376.229 324.48 376.672 324.296C377.115 324.112 377.605 324.021 378.14 324.021C378.665 324.021 379.129 324.105 379.531 324.273C379.932 324.441 380.286 324.669 380.592 324.958L380.263 325.417C380.242 325.451 380.214 325.479 380.182 325.502C380.149 325.524 380.106 325.535 380.051 325.535C379.989 325.535 379.914 325.502 379.824 325.435C379.735 325.367 379.619 325.293 379.474 325.211C379.33 325.129 379.15 325.053 378.933 324.987C378.717 324.92 378.451 324.886 378.135 324.886C377.754 324.886 377.405 324.953 377.089 325.085C376.772 325.217 376.501 325.408 376.272 325.659C376.044 325.909 375.867 326.215 375.739 326.576C375.613 326.936 375.549 327.343 375.549 327.796C375.549 328.257 375.615 328.666 375.746 329.028C375.879 329.389 376.06 329.693 376.288 329.943C376.516 330.191 376.786 330.381 377.097 330.512C377.407 330.642 377.743 330.707 378.104 330.707C378.324 330.707 378.522 330.694 378.699 330.669C378.875 330.643 379.039 330.602 379.187 330.547C379.337 330.493 379.477 330.423 379.605 330.339C379.734 330.255 379.862 330.154 379.989 330.037C380.048 329.986 380.106 329.96 380.164 329.96Z" fill="#FFEACC"/>
<path fill-rule="evenodd" clip-rule="evenodd" d="M388.04 331.485H387.041V328.126H383.059V331.485H382.06V324.103H383.059V327.395H387.041V324.103H388.04V331.485Z" fill="#FFEACC"/>
</g>
</svg>
