<svg width="210" height="190" viewBox="0 0 210 190" fill="none" xmlns="http://www.w3.org/2000/svg">
<path fill-rule="evenodd" clip-rule="evenodd" d="M21.039 144.073C20.861 144.364 20.676 144.578 20.482 144.714C20.288 144.851 20.046 144.921 19.756 144.921C19.449 144.921 19.106 144.791 18.727 144.534C18.347 144.275 17.879 143.988 17.322 143.673C16.766 143.359 16.108 143.068 15.349 142.803C14.591 142.537 13.688 142.403 12.638 142.403C11.669 142.403 10.818 142.524 10.084 142.765C9.35 143.008 8.732 143.347 8.232 143.783C7.731 144.219 7.356 144.731 7.106 145.32C6.856 145.909 6.732 146.551 6.732 147.245C6.732 148.132 6.965 148.871 7.433 149.46C7.901 150.049 8.518 150.554 9.285 150.973C10.052 151.393 10.927 151.759 11.912 152.075C12.896 152.39 13.901 152.724 14.926 153.079C15.95 153.435 16.955 153.839 17.939 154.29C18.924 154.741 19.799 155.315 20.566 156.009C21.333 156.703 21.951 157.55 22.419 158.551C22.887 159.551 23.121 160.77 23.121 162.206C23.121 163.755 22.855 165.208 22.321 166.563C21.789 167.919 21.019 169.102 20.01 170.11C19.001 171.12 17.758 171.914 16.282 172.495C14.805 173.077 13.122 173.367 11.234 173.367C10.12 173.367 9.035 173.258 7.978 173.04C6.921 172.821 5.912 172.516 4.952 172.12C3.991 171.724 3.091 171.244 2.252 170.679C1.413 170.114 0.663 169.486 0 168.791L1.647 166.08C1.792 165.854 1.978 165.676 2.204 165.547C2.429 165.418 2.679 165.354 2.954 165.354C3.325 165.354 3.737 165.527 4.189 165.874C4.64 166.222 5.185 166.6 5.824 167.012C6.461 167.424 7.231 167.802 8.135 168.15C9.039 168.497 10.12 168.67 11.379 168.67C13.429 168.67 15.015 168.17 16.136 167.17C17.258 166.169 17.818 164.788 17.818 163.029C17.818 162.045 17.584 161.242 17.117 160.62C16.649 159.999 16.032 159.479 15.265 159.059C14.498 158.64 13.622 158.284 12.638 157.994C11.654 157.703 10.653 157.393 9.636 157.062C8.62 156.732 7.618 156.343 6.634 155.9C5.65 155.456 4.774 154.875 4.007 154.157C3.241 153.439 2.623 152.551 2.155 151.494C1.687 150.437 1.454 149.117 1.454 147.535C1.454 146.276 1.699 145.058 2.191 143.88C2.684 142.702 3.402 141.657 4.346 140.744C5.291 139.833 6.457 139.102 7.845 138.554C9.232 138.005 10.814 137.73 12.59 137.73C14.591 137.73 16.427 138.045 18.098 138.675C19.768 139.305 21.208 140.2 22.419 141.362L21.039 144.073Z" fill="#FFEACC"/>
<mask id="mask0_0_5861" style="mask-type:luminance" maskUnits="userSpaceOnUse" x="0" y="0" width="210" height="190">
<path fill-rule="evenodd" clip-rule="evenodd" d="M0 189.572H209.554V0H0V189.572Z" fill="white"/>
</mask>
<g mask="url(#mask0_0_5861)">
<path fill-rule="evenodd" clip-rule="evenodd" d="M29.222 172.979H34.911V138.117H29.222V172.979Z" fill="#FFEACC"/>
<path fill-rule="evenodd" clip-rule="evenodd" d="M46.7598 138.154C46.9298 138.178 47.0878 138.223 47.2328 138.287C47.3778 138.352 47.5148 138.449 47.6448 138.578C47.7728 138.708 47.9108 138.869 48.0558 139.062L67.2288 163.683C67.1808 163.183 67.1448 162.69 67.1208 162.206C67.0968 161.722 67.0838 161.27 67.0838 160.851V138.118H72.0468V172.98H69.1658C68.7308 172.98 68.3588 172.903 68.0528 172.749C67.7448 172.597 67.4548 172.343 67.1808 171.987L48.0308 147.39C48.0798 147.859 48.1158 148.322 48.1408 148.782C48.1648 149.243 48.1768 149.666 48.1768 150.053V172.98H43.1888V138.118H46.1428C46.3848 138.118 46.5908 138.13 46.7598 138.154" fill="#FFEACC"/>
<path fill-rule="evenodd" clip-rule="evenodd" d="M107.32 155.549C107.32 153.548 107.05 151.747 106.509 150.15C105.968 148.553 105.193 147.196 104.185 146.083C103.176 144.969 101.954 144.113 100.517 143.517C99.0795 142.92 97.4665 142.621 95.6745 142.621C93.8995 142.621 92.2935 142.92 90.8565 143.517C89.4215 144.113 88.1945 144.969 87.1775 146.083C86.1605 147.196 85.3775 148.553 84.8295 150.15C84.2805 151.747 84.0055 153.548 84.0055 155.549C84.0055 157.566 84.2805 159.374 84.8295 160.971C85.3775 162.569 86.1605 163.921 87.1775 165.026C88.1945 166.132 89.4215 166.979 90.8565 167.568C92.2935 168.158 93.8995 168.453 95.6745 168.453C97.4665 168.453 99.0795 168.158 100.517 167.568C101.954 166.979 103.176 166.132 104.185 165.026C105.193 163.921 105.968 162.569 106.509 160.971C107.05 159.374 107.32 157.566 107.32 155.549M113.107 155.549C113.107 158.131 112.686 160.512 111.848 162.69C111.008 164.869 109.825 166.745 108.3 168.319C106.775 169.892 104.943 171.123 102.805 172.011C100.666 172.899 98.2905 173.343 95.6745 173.343C93.0755 173.343 90.7085 172.899 88.5695 172.011C86.4305 171.123 84.5945 169.892 83.0615 168.319C81.5275 166.745 80.3425 164.869 79.5025 162.69C78.6635 160.512 78.2445 158.131 78.2445 155.549C78.2445 152.966 78.6635 150.586 79.5025 148.407C80.3425 146.229 81.5275 144.348 83.0615 142.765C84.5945 141.184 86.4305 139.95 88.5695 139.061C90.7085 138.174 93.0755 137.73 95.6745 137.73C98.2905 137.73 100.666 138.174 102.805 139.061C104.943 139.95 106.775 141.184 108.3 142.765C109.825 144.348 111.008 146.229 111.848 148.407C112.686 150.586 113.107 152.966 113.107 155.549" fill="#FFEACC"/>
<path fill-rule="evenodd" clip-rule="evenodd" d="M124.968 155.887H130.149C131.407 155.887 132.517 155.726 133.478 155.403C134.438 155.08 135.237 154.624 135.874 154.035C136.512 153.446 136.993 152.732 137.315 151.892C137.638 151.054 137.799 150.117 137.799 149.084C137.799 148.067 137.641 147.155 137.326 146.349C137.012 145.542 136.54 144.856 135.911 144.291C135.281 143.727 134.487 143.294 133.526 142.995C132.566 142.698 131.44 142.548 130.149 142.548H124.968V155.887ZM124.968 160.366V172.979H119.303V138.117H130.149C132.424 138.117 134.398 138.384 136.068 138.916C137.739 139.45 139.118 140.195 140.208 141.155C141.297 142.116 142.108 143.27 142.641 144.618C143.174 145.965 143.44 147.454 143.44 149.084C143.44 150.746 143.157 152.268 142.593 153.647C142.027 155.027 141.189 156.214 140.075 157.207C138.961 158.199 137.578 158.973 135.922 159.531C134.268 160.087 132.344 160.366 130.149 160.366H124.968Z" fill="#FFEACC"/>
<path fill-rule="evenodd" clip-rule="evenodd" d="M167.091 144.073C166.913 144.364 166.728 144.578 166.534 144.714C166.341 144.851 166.098 144.921 165.808 144.921C165.501 144.921 165.158 144.791 164.779 144.534C164.399 144.275 163.931 143.988 163.375 143.673C162.818 143.359 162.16 143.068 161.401 142.803C160.643 142.537 159.74 142.403 158.69 142.403C157.722 142.403 156.87 142.524 156.137 142.765C155.402 143.008 154.784 143.347 154.284 143.783C153.784 144.219 153.408 144.731 153.159 145.32C152.908 145.909 152.784 146.551 152.784 147.245C152.784 148.132 153.017 148.871 153.485 149.46C153.953 150.049 154.571 150.554 155.337 150.973C156.104 151.393 156.979 151.759 157.964 152.075C158.949 152.39 159.953 152.724 160.979 153.079C162.003 153.435 163.008 153.839 163.992 154.29C164.976 154.741 165.852 155.315 166.619 156.009C167.386 156.703 168.003 157.55 168.471 158.551C168.939 159.551 169.173 160.77 169.173 162.206C169.173 163.755 168.907 165.208 168.374 166.563C167.841 167.919 167.071 169.102 166.062 170.11C165.053 171.12 163.811 171.914 162.334 172.495C160.857 173.077 159.174 173.367 157.286 173.367C156.172 173.367 155.087 173.258 154.03 173.04C152.973 172.821 151.964 172.516 151.004 172.12C150.043 171.724 149.144 171.244 148.304 170.679C147.465 170.114 146.715 169.486 146.052 168.791L147.7 166.08C147.844 165.854 148.031 165.676 148.256 165.547C148.482 165.418 148.731 165.354 149.006 165.354C149.377 165.354 149.789 165.527 150.241 165.874C150.693 166.222 151.238 166.6 151.876 167.012C152.513 167.424 153.283 167.802 154.187 168.15C155.091 168.497 156.172 168.67 157.431 168.67C159.481 168.67 161.067 168.17 162.189 167.17C163.31 166.169 163.871 164.788 163.871 163.029C163.871 162.045 163.637 161.242 163.169 160.62C162.701 159.999 162.084 159.479 161.317 159.059C160.55 158.64 159.674 158.284 158.69 157.994C157.706 157.703 156.705 157.393 155.689 157.062C154.672 156.732 153.671 156.343 152.686 155.9C151.702 155.456 150.826 154.875 150.06 154.157C149.293 153.439 148.675 152.551 148.207 151.494C147.739 150.437 147.506 149.117 147.506 147.535C147.506 146.276 147.751 145.058 148.244 143.88C148.736 142.702 149.454 141.657 150.399 140.744C151.343 139.833 152.509 139.102 153.897 138.554C155.285 138.005 156.867 137.73 158.642 137.73C160.643 137.73 162.479 138.045 164.15 138.675C165.82 139.305 167.26 140.2 168.471 141.362L167.091 144.073Z" fill="#FFEACC"/>
<path fill-rule="evenodd" clip-rule="evenodd" d="M175.274 172.979H180.963V138.117H175.274V172.979Z" fill="#FFEACC"/>
<path fill-rule="evenodd" clip-rule="evenodd" d="M207.472 144.073C207.294 144.364 207.109 144.578 206.915 144.714C206.722 144.851 206.479 144.921 206.189 144.921C205.882 144.921 205.539 144.791 205.16 144.534C204.78 144.275 204.312 143.988 203.755 143.673C203.199 143.359 202.541 143.068 201.782 142.803C201.024 142.537 200.121 142.403 199.071 142.403C198.102 142.403 197.251 142.524 196.518 142.765C195.783 143.008 195.165 143.347 194.665 143.783C194.165 144.219 193.789 144.731 193.54 145.32C193.289 145.909 193.165 146.551 193.165 147.245C193.165 148.132 193.398 148.871 193.866 149.46C194.334 150.049 194.951 150.554 195.718 150.973C196.485 151.393 197.36 151.759 198.345 152.075C199.329 152.39 200.334 152.724 201.359 153.079C202.384 153.435 203.388 153.839 204.373 154.29C205.357 154.741 206.232 155.315 206.999 156.009C207.766 156.703 208.384 157.55 208.852 158.551C209.32 159.551 209.554 160.77 209.554 162.206C209.554 163.755 209.288 165.208 208.755 166.563C208.222 167.919 207.452 169.102 206.443 170.11C205.434 171.12 204.191 171.914 202.715 172.495C201.238 173.077 199.555 173.367 197.667 173.367C196.553 173.367 195.468 173.258 194.411 173.04C193.354 172.821 192.345 172.516 191.385 172.12C190.424 171.724 189.525 171.244 188.685 170.679C187.846 170.114 187.096 169.486 186.433 168.791L188.081 166.08C188.225 165.854 188.411 165.676 188.637 165.547C188.862 165.418 189.112 165.354 189.387 165.354C189.758 165.354 190.17 165.527 190.622 165.874C191.073 166.222 191.618 166.6 192.257 167.012C192.894 167.424 193.664 167.802 194.568 168.15C195.472 168.497 196.553 168.67 197.812 168.67C199.862 168.67 201.448 168.17 202.569 167.17C203.691 166.169 204.251 164.788 204.251 163.029C204.251 162.045 204.017 161.242 203.55 160.62C203.082 159.999 202.465 159.479 201.698 159.059C200.931 158.64 200.055 158.284 199.071 157.994C198.087 157.703 197.086 157.393 196.07 157.062C195.053 156.732 194.052 156.343 193.067 155.9C192.083 155.456 191.207 154.875 190.44 154.157C189.674 153.439 189.056 152.551 188.588 151.494C188.12 150.437 187.887 149.117 187.887 147.535C187.887 146.276 188.132 145.058 188.624 143.88C189.117 142.702 189.835 141.657 190.78 140.744C191.724 139.833 192.89 139.102 194.278 138.554C195.666 138.005 197.248 137.73 199.023 137.73C201.024 137.73 202.86 138.045 204.531 138.675C206.201 139.305 207.641 140.2 208.852 141.362L207.472 144.073Z" fill="#FFEACC"/>
<path fill-rule="evenodd" clip-rule="evenodd" d="M95.7961 57.3194C104.209 50.7514 112.533 44.2514 120.995 37.6454C118.547 35.9244 116.167 34.2494 113.768 32.5634C105.361 39.1274 97.0051 45.6494 88.5591 52.2434C90.9891 53.9474 93.3341 55.5924 95.7961 57.3194" fill="#FFEACC"/>
<path fill-rule="evenodd" clip-rule="evenodd" d="M131.865 57.5702C129.41 55.7872 127.053 54.0762 124.698 52.3662C129.822 48.4062 145.66 35.8882 149.289 33.3582C155.292 28.6872 164.767 30.0272 169.41 35.6752C172.838 39.8452 174.137 44.5092 172.114 49.6962C170.039 55.0132 166.091 58.2012 160.468 59.2412C156.294 60.0122 152.506 59.2002 149.136 56.4912C147.175 54.9162 145.08 53.5062 142.957 51.9572C145.169 50.2842 150.108 46.3452 150.108 46.3452C150.108 46.3452 153.279 48.9172 154.519 49.8262C157.152 51.7552 160.753 51.3732 163.003 48.9152C165.144 46.5762 165.226 43.6222 163.214 41.2352C161.086 38.7112 157.341 38.0282 154.764 39.9372C150.977 42.7422 147.334 45.7412 143.601 48.6212C139.716 51.6192 135.798 54.5742 131.865 57.5702" fill="#FFEACC"/>
<path fill-rule="evenodd" clip-rule="evenodd" d="M77.6891 32.4752C80.1451 34.2572 82.5021 35.9692 84.8561 37.6792C79.7321 41.6392 63.8941 54.1572 60.2651 56.6872C54.2621 61.3582 44.7871 60.0182 40.1451 54.3702C36.7161 50.2002 35.4171 45.5362 37.4401 40.3492C39.5141 35.0322 43.4621 31.8442 49.0861 30.8042C53.2601 30.0322 57.0481 30.8452 60.4181 33.5542C62.3791 35.1292 64.4741 36.5392 66.5971 38.0882C64.3851 39.7612 59.4461 43.7002 59.4461 43.7002C59.4461 43.7002 56.2751 41.1282 55.0351 40.2192C52.4031 38.2902 48.8011 38.6722 46.5511 41.1302C44.4101 43.4692 44.3291 46.4232 46.3401 48.8102C48.4681 51.3342 52.2121 52.0172 54.7901 50.1082C58.5781 47.3032 62.2201 44.3042 65.9531 41.4242C69.8381 38.4262 73.7561 35.4712 77.6891 32.4752" fill="#FFEACC"/>
<path fill-rule="evenodd" clip-rule="evenodd" d="M103.114 37.9809C100.697 39.7979 98.439 41.4939 96.072 43.2719C94.872 42.3949 93.686 41.5238 92.496 40.6588C86.47 36.2838 80.428 31.9298 74.418 27.5318C67.786 22.6798 65.991 13.8828 70.216 7.13685C74.485 0.320849 83.117 -1.99715 90.341 1.86485C92.118 2.81485 93.657 4.21185 95.303 5.40685C97.863 7.26785 100.422 9.13185 103.144 11.1128C100.691 12.9578 98.369 14.7038 96.021 16.4698C93.071 14.3118 90.173 12.2208 87.307 10.0848C83.88 7.53185 79.907 7.93585 77.579 11.1158C75.275 14.2618 76.179 18.3578 79.607 20.8378C87.403 26.4798 95.161 32.1759 103.114 37.9809" fill="#FFEACC"/>
<path fill-rule="evenodd" clip-rule="evenodd" d="M106.333 51.9046C108.75 50.0886 111.008 48.3916 113.375 46.6136C114.575 47.4906 115.761 48.3616 116.951 49.2256C122.977 53.6006 129.019 57.9566 135.029 62.3526C141.661 67.2056 143.456 76.0026 139.231 82.7486C134.962 89.5646 126.33 91.8826 119.106 88.0206C117.329 87.0706 115.79 85.6736 114.144 84.4786C111.584 82.6176 109.025 80.7536 106.303 78.7726C108.757 76.9276 111.078 75.1816 113.426 73.4156C116.376 75.5736 119.274 77.6646 122.14 79.7996C125.567 82.3526 129.54 81.9496 131.868 78.7696C134.172 75.6236 133.268 71.5276 129.84 69.0476C122.044 63.4046 114.286 57.7096 106.333 51.9046" fill="#FFEACC"/>
<path fill-rule="evenodd" clip-rule="evenodd" d="M131.664 29.9708C129.243 28.2118 126.918 26.5228 124.419 24.7078C126.424 23.2708 128.336 21.9118 130.236 20.5358C132.83 18.6588 133.784 15.5018 132.646 12.6108C131.543 9.80682 128.775 7.99282 125.794 8.48982C124.445 8.71382 123.062 9.42282 121.947 10.2508C113.577 16.4708 105.27 22.7758 96.9412 29.0518C96.5462 29.3488 96.1362 29.6268 95.6352 29.9838C93.2792 28.2748 90.9222 26.5648 88.4222 24.7508C89.3382 24.0898 90.1372 23.5348 90.9122 22.9488C99.6292 16.3618 108.355 9.78582 117.053 3.17382C123.859 -2.00018 133.434 -0.702176 138.509 6.12982C143.526 12.8828 141.946 22.6248 135.038 27.5428C133.947 28.3198 132.863 29.1078 131.664 29.9708" fill="#FFEACC"/>
<path fill-rule="evenodd" clip-rule="evenodd" d="M77.6966 59.9119C80.1176 61.6709 82.4426 63.3599 84.9416 65.1749C82.9356 66.6119 81.0246 67.9699 79.1236 69.3469C76.5296 71.2239 75.5766 74.3799 76.7146 77.2719C77.8176 80.0759 80.5856 81.8889 83.5666 81.3929C84.9156 81.1679 86.2976 80.4599 87.4136 79.6319C95.7836 73.4119 104.091 67.1069 112.42 60.8299C112.815 60.5329 113.225 60.2559 113.726 59.8989C116.082 61.6079 118.438 63.3179 120.938 65.1319C120.023 65.7929 119.224 66.3479 118.448 66.9339C109.732 73.5209 101.006 80.0969 92.3076 86.7089C85.5016 91.8829 75.9266 90.5849 70.8506 83.7529C65.8346 76.9999 67.4146 67.2589 74.3216 62.3399C75.4136 61.5619 76.4966 60.7749 77.6966 59.9119" fill="#FFEACC"/>
<path fill-rule="evenodd" clip-rule="evenodd" d="M113.616 19.3898C122.249 25.6658 130.792 31.8758 139.475 38.1888C137.088 39.9928 134.766 41.7468 132.427 43.5148C123.799 37.2438 115.225 31.0108 106.558 24.7118C108.927 22.9248 111.215 21.1998 113.616 19.3898" fill="#FFEACC"/>
<path fill-rule="evenodd" clip-rule="evenodd" d="M102.954 65.2535C100.586 67.0325 98.287 68.7595 95.96 70.5085C87.373 64.2815 78.817 58.0785 70.134 51.7835C72.524 49.9865 74.846 48.2405 77.181 46.4845C85.803 52.7625 94.339 58.9805 102.954 65.2535" fill="#FFEACC"/>
<path fill-rule="evenodd" clip-rule="evenodd" d="M191.186 120.601C191.186 121.303 190.618 121.872 189.915 121.872H20.6462C19.9442 121.872 19.3762 121.303 19.3762 120.601C19.3762 119.899 19.9442 119.33 20.6462 119.33H189.915C190.618 119.33 191.186 119.899 191.186 120.601" fill="#FFEACC"/>
<path fill-rule="evenodd" clip-rule="evenodd" d="M13.1654 180.124H13.8354C13.8754 180.124 13.9254 180.13 13.9824 180.139C14.0394 180.151 14.0874 180.184 14.1294 180.243L14.7574 181.021C14.7674 181.038 14.7774 181.054 14.7884 181.07C14.7974 181.085 14.8094 181.1 14.8184 181.114C14.8254 181.1 14.8344 181.085 14.8444 181.07C14.8544 181.054 14.8674 181.038 14.8814 181.021L15.5044 180.248C15.5484 180.186 15.6004 180.151 15.6564 180.139C15.7134 180.13 15.7614 180.124 15.8034 180.124H16.4724L15.2474 181.521H14.3914L13.1654 180.124ZM16.7624 187.959C16.8154 187.959 16.8634 187.982 16.9054 188.026L17.3014 188.454C17.0004 188.804 16.6324 189.077 16.2024 189.273C15.7714 189.469 15.2504 189.566 14.6384 189.566C14.1094 189.566 13.6294 189.474 13.1964 189.291C12.7644 189.108 12.3944 188.85 12.0894 188.518C11.7824 188.187 11.5464 187.789 11.3774 187.326C11.2094 186.862 11.1254 186.352 11.1254 185.796C11.1254 185.24 11.2134 184.73 11.3884 184.266C11.5634 183.803 11.8094 183.404 12.1274 183.071C12.4454 182.738 12.8264 182.48 13.2674 182.295C13.7104 182.112 14.2004 182.02 14.7374 182.02C15.2614 182.02 15.7254 182.104 16.1274 182.272C16.5284 182.441 16.8834 182.669 17.1874 182.958L16.8574 183.416C16.8374 183.45 16.8114 183.478 16.7794 183.501C16.7454 183.523 16.7014 183.534 16.6474 183.534C16.5854 183.534 16.5104 183.501 16.4204 183.434C16.3324 183.367 16.2134 183.292 16.0704 183.21C15.9264 183.128 15.7474 183.053 15.5304 182.986C15.3134 182.919 15.0474 182.885 14.7314 182.885C14.3504 182.885 14.0014 182.952 13.6864 183.084C13.3704 183.216 13.0974 183.407 12.8684 183.658C12.6404 183.908 12.4634 184.215 12.3354 184.575C12.2084 184.935 12.1444 185.343 12.1444 185.796C12.1444 186.257 12.2114 186.666 12.3444 187.027C12.4754 187.388 12.6554 187.692 12.8844 187.942C13.1124 188.19 13.3834 188.38 13.6934 188.511C14.0044 188.641 14.3404 188.707 14.7004 188.707C14.9194 188.707 15.1194 188.693 15.2944 188.668C15.4724 188.642 15.6354 188.601 15.7854 188.546C15.9344 188.492 16.0734 188.422 16.2024 188.338C16.3304 188.254 16.4584 188.154 16.5854 188.037C16.6434 187.985 16.7014 187.959 16.7624 187.959V187.959Z" fill="#FFEACC"/>
<path fill-rule="evenodd" clip-rule="evenodd" d="M18.6621 189.484H19.6611V182.102H18.6621V189.484ZM21.1251 179.944L19.4451 181.417C19.3931 181.465 19.3441 181.494 19.2961 181.505C19.2471 181.515 19.1901 181.52 19.1201 181.52H18.4611L19.6511 180.109C19.7081 180.033 19.7681 179.987 19.8291 179.97C19.8891 179.952 19.9751 179.944 20.0891 179.944H21.1251Z" fill="#FFEACC"/>
<path fill-rule="evenodd" clip-rule="evenodd" d="M22.3707 182.111C22.4017 182.116 22.4287 182.124 22.4527 182.136C22.4767 182.149 22.5017 182.166 22.5247 182.187C22.5487 182.21 22.5747 182.238 22.6027 182.273L26.8727 187.831C26.8657 187.742 26.8597 187.656 26.8547 187.571C26.8497 187.488 26.8477 187.407 26.8477 187.332V182.103H27.7227V189.485H27.2227C27.1437 189.485 27.0777 189.471 27.0247 189.444C26.9707 189.416 26.9197 189.37 26.8677 189.304L22.5977 183.746C22.6037 183.832 22.6097 183.916 22.6127 183.998C22.6167 184.081 22.6177 184.157 22.6177 184.226V189.485H21.7427V182.103H22.2577C22.3017 182.103 22.3397 182.105 22.3707 182.111" fill="#FFEACC"/>
<path fill-rule="evenodd" clip-rule="evenodd" d="M30.9682 186.744H33.7242L32.5642 183.74C32.5282 183.651 32.4912 183.549 32.4532 183.432C32.4182 183.315 32.3812 183.189 32.3432 183.056C32.3092 183.189 32.2732 183.316 32.2372 183.434C32.2022 183.553 32.1652 183.657 32.1272 183.746L30.9682 186.744ZM35.8052 189.485H35.0322C34.9432 189.485 34.8702 189.462 34.8162 189.417C34.7612 189.373 34.7192 189.317 34.6922 189.247L34.0022 187.464H30.6902L29.9992 189.247C29.9792 189.309 29.9392 189.363 29.8812 189.412C29.8232 189.46 29.7512 189.485 29.6652 189.485H28.8922L31.8442 182.102H32.8532L35.8052 189.485Z" fill="#FFEACC"/>
<path fill-rule="evenodd" clip-rule="evenodd" d="M38.1801 182.103H38.9781C39.0681 182.103 39.1391 182.125 39.1941 182.17C39.2491 182.215 39.2901 182.271 39.3181 182.34L41.3991 187.548C41.4431 187.665 41.4871 187.792 41.5281 187.929C41.5691 188.067 41.6081 188.209 41.6461 188.358C41.6771 188.209 41.7121 188.067 41.7521 187.929C41.7911 187.792 41.8331 187.665 41.8781 187.548L43.9541 182.34C43.9751 182.281 44.0151 182.228 44.0751 182.177C44.1361 182.128 44.2081 182.103 44.2941 182.103H45.0921L42.0841 189.485H41.1881L38.1801 182.103Z" fill="#FFEACC"/>
<path fill-rule="evenodd" clip-rule="evenodd" d="M49.7179 185.338H50.0949C50.2249 185.338 50.3299 185.321 50.4079 185.289C50.4879 185.256 50.5599 185.2 50.6249 185.121L53.0829 182.34C53.1509 182.251 53.2229 182.188 53.2979 182.154C53.3739 182.119 53.4659 182.103 53.5769 182.103H54.4219L51.6089 185.281C51.5409 185.363 51.4739 185.432 51.4109 185.485C51.3479 185.538 51.2789 185.582 51.2079 185.616C51.3009 185.647 51.3839 185.692 51.4599 185.752C51.5349 185.813 51.6089 185.89 51.6819 185.987L54.6169 189.485H53.7519C53.6869 189.485 53.6309 189.481 53.5839 189.471C53.5379 189.463 53.4969 189.449 53.4639 189.431C53.4289 189.411 53.3989 189.389 53.3729 189.363C53.3479 189.338 53.3219 189.308 53.2979 189.273L50.7539 186.343C50.6849 186.256 50.6109 186.196 50.5319 186.159C50.4539 186.123 50.3329 186.105 50.1719 186.105H49.7179V189.485H48.7249V182.103H49.7179V185.338Z" fill="#FFEACC"/>
<path fill-rule="evenodd" clip-rule="evenodd" d="M61.0977 185.796C61.0977 185.343 61.0357 184.936 60.9117 184.576C60.7887 184.215 60.6137 183.91 60.3867 183.661C60.1607 183.412 59.8857 183.221 59.5627 183.086C59.2397 182.953 58.8787 182.885 58.4807 182.885C58.0857 182.885 57.7267 182.953 57.4047 183.086C57.0817 183.221 56.8057 183.412 56.5767 183.661C56.3487 183.91 56.1727 184.215 56.0497 184.576C55.9257 184.936 55.8627 185.343 55.8627 185.796C55.8627 186.25 55.9257 186.656 56.0497 187.014C56.1727 187.374 56.3487 187.678 56.5767 187.926C56.8057 188.175 57.0817 188.366 57.4047 188.497C57.7267 188.63 58.0857 188.697 58.4807 188.697C58.8787 188.697 59.2397 188.63 59.5627 188.497C59.8857 188.366 60.1607 188.175 60.3867 187.926C60.6137 187.678 60.7887 187.374 60.9117 187.014C61.0357 186.656 61.0977 186.25 61.0977 185.796M62.1227 185.796C62.1227 186.35 62.0357 186.857 61.8597 187.319C61.6847 187.78 61.4377 188.177 61.1177 188.511C60.7987 188.844 60.4147 189.103 59.9667 189.286C59.5187 189.47 59.0237 189.562 58.4807 189.562C57.9377 189.562 57.4437 189.47 56.9967 189.286C56.5507 189.103 56.1677 188.844 55.8487 188.511C55.5287 188.177 55.2817 187.78 55.1067 187.319C54.9317 186.857 54.8427 186.35 54.8427 185.796C54.8427 185.243 54.9317 184.736 55.1067 184.274C55.2817 183.812 55.5287 183.414 55.8487 183.079C56.1677 182.745 56.5507 182.484 56.9967 182.298C57.4437 182.113 57.9377 182.02 58.4807 182.02C59.0237 182.02 59.5187 182.113 59.9667 182.298C60.4147 182.484 60.7987 182.745 61.1177 183.079C61.4377 183.414 61.6847 183.812 61.8597 184.274C62.0357 184.736 62.1227 185.243 62.1227 185.796" fill="#FFEACC"/>
<path fill-rule="evenodd" clip-rule="evenodd" d="M64.3734 182.111C64.4044 182.116 64.4314 182.124 64.4554 182.136C64.4794 182.149 64.5044 182.166 64.5284 182.187C64.5514 182.21 64.5774 182.238 64.6054 182.273L68.8754 187.831C68.8684 187.742 68.8624 187.656 68.8574 187.571C68.8524 187.488 68.8504 187.407 68.8504 187.332V182.103H69.7254V189.485H69.2264C69.1464 189.485 69.0814 189.471 69.0274 189.444C68.9734 189.416 68.9224 189.37 68.8704 189.304L64.6004 183.746C64.6064 183.832 64.6124 183.916 64.6154 183.998C64.6194 184.081 64.6214 184.157 64.6214 184.226V189.485H63.7454V182.103H64.2604C64.3044 182.103 64.3424 182.105 64.3734 182.111" fill="#FFEACC"/>
<path fill-rule="evenodd" clip-rule="evenodd" d="M76.7977 182.103V182.942H74.4077V189.485H73.4137V182.942H71.0177V182.103H76.7977Z" fill="#FFEACC"/>
<path fill-rule="evenodd" clip-rule="evenodd" d="M82.6342 182.103V182.917H79.0862V185.369H81.9592V186.152H79.0862V188.671H82.6402L82.6342 189.485H78.0862V182.103H82.6342Z" fill="#FFEACC"/>
<path fill-rule="evenodd" clip-rule="evenodd" d="M85.9311 185.693L83.4951 182.103H84.4891C84.5611 182.103 84.6141 182.115 84.6491 182.139C84.6831 182.163 84.7141 182.198 84.7411 182.241L86.6681 185.199C86.6921 185.127 86.7281 185.048 86.7761 184.962L88.5941 182.263C88.6221 182.215 88.6551 182.176 88.6921 182.147C88.7301 182.118 88.7741 182.103 88.8261 182.103H89.7791L87.3321 185.647L89.8611 189.485H88.8721C88.7971 189.485 88.7381 189.465 88.6951 189.425C88.6521 189.386 88.6161 189.342 88.5901 189.295L86.6111 186.198C86.5871 186.27 86.5561 186.339 86.5181 186.405L84.5921 189.295C84.5581 189.342 84.5201 189.386 84.4811 189.425C84.4411 189.465 84.3871 189.485 84.3191 189.485H83.3911L85.9311 185.693Z" fill="#FFEACC"/>
<path fill-rule="evenodd" clip-rule="evenodd" d="M96.1045 182.103V182.942H93.7145V189.485H92.7195V182.942H90.3245V182.103H96.1045Z" fill="#FFEACC"/>
<path fill-rule="evenodd" clip-rule="evenodd" d="M100.242 188.691C100.547 188.691 100.82 188.64 101.061 188.536C101.301 188.433 101.505 188.29 101.671 188.104C101.837 187.918 101.965 187.697 102.052 187.439C102.14 187.182 102.184 186.898 102.184 186.59V182.103H103.178V186.59C103.178 187.015 103.111 187.41 102.974 187.774C102.839 188.139 102.645 188.454 102.392 188.719C102.14 188.986 101.832 189.194 101.468 189.346C101.104 189.496 100.695 189.572 100.242 189.572C99.7875 189.572 99.3795 189.496 99.0155 189.346C98.6515 189.194 98.3415 188.986 98.0885 188.719C97.8345 188.454 97.6385 188.139 97.5035 187.774C97.3675 187.41 97.3005 187.015 97.3005 186.59V182.103H98.2945V186.584C98.2945 186.894 98.3375 187.177 98.4245 187.435C98.5135 187.691 98.6395 187.914 98.8065 188.099C98.9735 188.284 99.1775 188.429 99.4185 188.534C99.6615 188.639 99.9355 188.691 100.242 188.691" fill="#FFEACC"/>
<path fill-rule="evenodd" clip-rule="evenodd" d="M108.818 186.744H111.574L110.414 183.74C110.378 183.651 110.34 183.549 110.303 183.432C110.268 183.315 110.231 183.189 110.193 183.056C110.158 183.189 110.123 183.316 110.087 183.434C110.052 183.553 110.015 183.657 109.976 183.746L108.818 186.744ZM113.654 189.485H112.882C112.793 189.485 112.72 189.462 112.666 189.417C112.611 189.373 112.569 189.317 112.542 189.247L111.852 187.464H108.539L107.849 189.247C107.828 189.309 107.789 189.363 107.73 189.412C107.672 189.46 107.601 189.485 107.515 189.485H106.742L109.694 182.102H110.703L113.654 189.485Z" fill="#FFEACC"/>
<path fill-rule="evenodd" clip-rule="evenodd" d="M121.088 183.257C121.056 183.308 121.024 183.347 120.987 183.373C120.952 183.399 120.908 183.412 120.856 183.412C120.798 183.412 120.729 183.383 120.651 183.324C120.571 183.265 120.473 183.201 120.354 183.131C120.235 183.061 120.093 182.996 119.927 182.938C119.76 182.879 119.558 182.85 119.321 182.85C119.098 182.85 118.902 182.88 118.731 182.94C118.562 183 118.419 183.082 118.303 183.185C118.189 183.289 118.102 183.409 118.044 183.548C117.986 183.687 117.956 183.837 117.956 183.999C117.956 184.205 118.007 184.376 118.108 184.511C118.21 184.647 118.343 184.763 118.509 184.859C118.677 184.956 118.865 185.039 119.077 185.109C119.288 185.179 119.504 185.253 119.726 185.328C119.947 185.403 120.164 185.489 120.375 185.582C120.586 185.678 120.774 185.797 120.941 185.941C121.108 186.086 121.242 186.262 121.343 186.472C121.445 186.681 121.495 186.938 121.495 187.244C121.495 187.567 121.44 187.871 121.331 188.154C121.22 188.436 121.06 188.683 120.849 188.893C120.637 189.103 120.378 189.267 120.071 189.388C119.763 189.507 119.414 189.568 119.023 189.568C118.541 189.568 118.105 189.481 117.715 189.307C117.322 189.134 116.988 188.9 116.709 188.604L116.998 188.13C117.025 188.093 117.059 188.06 117.099 188.035C117.138 188.009 117.182 187.997 117.23 187.997C117.274 187.997 117.325 188.014 117.381 188.051C117.438 188.086 117.503 188.133 117.575 188.187C117.647 188.242 117.729 188.302 117.822 188.368C117.915 188.433 118.021 188.492 118.139 188.548C118.258 188.602 118.392 188.648 118.544 188.684C118.695 188.72 118.864 188.738 119.053 188.738C119.291 188.738 119.502 188.705 119.687 188.64C119.873 188.576 120.029 188.483 120.158 188.365C120.286 188.247 120.386 188.105 120.454 187.939C120.523 187.775 120.557 187.591 120.557 187.388C120.557 187.166 120.507 186.982 120.405 186.84C120.305 186.698 120.171 186.578 120.006 186.481C119.842 186.386 119.652 186.305 119.439 186.237C119.227 186.17 119.01 186.101 118.791 186.031C118.57 185.96 118.354 185.879 118.141 185.786C117.928 185.693 117.74 185.574 117.575 185.426C117.41 185.279 117.277 185.093 117.176 184.872C117.075 184.651 117.024 184.377 117.024 184.051C117.024 183.79 117.075 183.536 117.176 183.293C117.277 183.049 117.425 182.833 117.619 182.644C117.812 182.455 118.051 182.305 118.334 182.191C118.618 182.077 118.943 182.02 119.311 182.02C119.723 182.02 120.098 182.087 120.436 182.217C120.774 182.347 121.073 182.536 121.331 182.782L121.088 183.257Z" fill="#FFEACC"/>
<path fill-rule="evenodd" clip-rule="evenodd" d="M128.892 185.796C128.892 185.343 128.83 184.936 128.706 184.576C128.583 184.215 128.408 183.91 128.18 183.661C127.954 183.412 127.68 183.221 127.356 183.086C127.033 182.953 126.673 182.885 126.275 182.885C125.88 182.885 125.521 182.953 125.198 183.086C124.875 183.221 124.6 183.412 124.371 183.661C124.143 183.91 123.967 184.215 123.843 184.576C123.72 184.936 123.657 185.343 123.657 185.796C123.657 186.25 123.72 186.656 123.843 187.014C123.967 187.374 124.143 187.678 124.371 187.926C124.6 188.175 124.875 188.366 125.198 188.497C125.521 188.63 125.88 188.697 126.275 188.697C126.673 188.697 127.033 188.63 127.356 188.497C127.68 188.366 127.954 188.175 128.18 187.926C128.408 187.678 128.583 187.374 128.706 187.014C128.83 186.656 128.892 186.25 128.892 185.796M129.917 185.796C129.917 186.35 129.829 186.857 129.654 187.319C129.479 187.78 129.231 188.177 128.912 188.511C128.592 188.844 128.209 189.103 127.761 189.286C127.312 189.47 126.817 189.562 126.275 189.562C125.731 189.562 125.237 189.47 124.791 189.286C124.344 189.103 123.961 188.844 123.642 188.511C123.323 188.177 123.076 187.78 122.901 187.319C122.725 186.857 122.637 186.35 122.637 185.796C122.637 185.243 122.725 184.736 122.901 184.274C123.076 183.812 123.323 183.414 123.642 183.079C123.961 182.745 124.344 182.484 124.791 182.298C125.237 182.113 125.731 182.02 126.275 182.02C126.817 182.02 127.312 182.113 127.761 182.298C128.209 182.484 128.592 182.745 128.912 183.079C129.231 183.414 129.479 183.812 129.654 184.274C129.829 184.736 129.917 185.243 129.917 185.796" fill="#FFEACC"/>
<path fill-rule="evenodd" clip-rule="evenodd" d="M134.388 188.691C134.693 188.691 134.966 188.64 135.207 188.536C135.447 188.433 135.651 188.29 135.817 188.104C135.983 187.918 136.111 187.697 136.198 187.439C136.286 187.182 136.33 186.898 136.33 186.59V182.103H137.324V186.59C137.324 187.015 137.257 187.41 137.12 187.774C136.985 188.139 136.791 188.454 136.538 188.719C136.286 188.986 135.978 189.194 135.614 189.346C135.25 189.496 134.841 189.572 134.388 189.572C133.934 189.572 133.526 189.496 133.162 189.346C132.798 189.194 132.488 188.986 132.235 188.719C131.981 188.454 131.785 188.139 131.65 187.774C131.514 187.41 131.447 187.015 131.447 186.59V182.103H132.441V186.584C132.441 186.894 132.484 187.177 132.571 187.435C132.659 187.691 132.786 187.914 132.953 188.099C133.12 188.284 133.324 188.429 133.565 188.534C133.808 188.639 134.082 188.691 134.388 188.691" fill="#FFEACC"/>
<path fill-rule="evenodd" clip-rule="evenodd" d="M138.401 182.103H139.2C139.289 182.103 139.361 182.125 139.415 182.17C139.471 182.215 139.511 182.271 139.539 182.34L141.621 187.548C141.664 187.665 141.708 187.792 141.749 187.929C141.79 188.067 141.829 188.209 141.867 188.358C141.898 188.209 141.933 188.067 141.973 187.929C142.012 187.792 142.055 187.665 142.099 187.548L144.175 182.34C144.196 182.281 144.236 182.228 144.296 182.177C144.357 182.128 144.429 182.103 144.515 182.103H145.314L142.305 189.485H141.41L138.401 182.103Z" fill="#FFEACC"/>
<path fill-rule="evenodd" clip-rule="evenodd" d="M146.483 189.484H147.482V182.102H146.483V189.484Z" fill="#FFEACC"/>
<path fill-rule="evenodd" clip-rule="evenodd" d="M153.34 183.257C153.309 183.308 153.276 183.347 153.239 183.373C153.204 183.399 153.159 183.412 153.108 183.412C153.049 183.412 152.981 183.383 152.903 183.324C152.823 183.265 152.724 183.201 152.606 183.131C152.487 183.061 152.345 182.996 152.178 182.938C152.012 182.879 151.809 182.85 151.573 182.85C151.35 182.85 151.153 182.88 150.983 182.94C150.814 183 150.671 183.082 150.555 183.185C150.441 183.289 150.353 183.409 150.295 183.548C150.237 183.687 150.208 183.837 150.208 183.999C150.208 184.205 150.259 184.376 150.36 184.511C150.461 184.647 150.595 184.763 150.761 184.859C150.929 184.956 151.117 185.039 151.328 185.109C151.54 185.179 151.755 185.253 151.977 185.328C152.199 185.403 152.416 185.489 152.627 185.582C152.837 185.678 153.026 185.797 153.193 185.941C153.36 186.086 153.494 186.262 153.594 186.472C153.696 186.681 153.747 186.938 153.747 187.244C153.747 187.567 153.691 187.871 153.582 188.154C153.472 188.436 153.311 188.683 153.1 188.893C152.889 189.103 152.63 189.267 152.323 189.388C152.015 189.507 151.666 189.568 151.274 189.568C150.793 189.568 150.357 189.481 149.966 189.307C149.574 189.134 149.24 188.9 148.962 188.604L149.25 188.13C149.276 188.093 149.311 188.06 149.351 188.035C149.39 188.009 149.433 187.997 149.481 187.997C149.526 187.997 149.577 188.014 149.633 188.051C149.69 188.086 149.755 188.133 149.827 188.187C149.899 188.242 149.981 188.302 150.074 188.368C150.167 188.433 150.273 188.492 150.391 188.548C150.509 188.602 150.644 188.648 150.796 188.684C150.946 188.72 151.116 188.738 151.305 188.738C151.542 188.738 151.753 188.705 151.939 188.64C152.124 188.576 152.281 188.483 152.41 188.365C152.538 188.247 152.638 188.105 152.707 187.939C152.774 187.775 152.809 187.591 152.809 187.388C152.809 187.166 152.759 186.982 152.657 186.84C152.556 186.698 152.423 186.578 152.258 186.481C152.094 186.386 151.904 186.305 151.692 186.237C151.479 186.17 151.262 186.101 151.043 186.031C150.822 185.96 150.606 185.879 150.393 185.786C150.18 185.693 149.992 185.574 149.827 185.426C149.662 185.279 149.529 185.093 149.427 184.872C149.326 184.651 149.275 184.377 149.275 184.051C149.275 183.79 149.326 183.536 149.427 183.293C149.529 183.049 149.677 182.833 149.87 182.644C150.064 182.455 150.303 182.305 150.586 182.191C150.87 182.077 151.195 182.02 151.563 182.02C151.974 182.02 152.349 182.087 152.688 182.217C153.026 182.347 153.325 182.536 153.582 182.782L153.34 183.257Z" fill="#FFEACC"/>
<path fill-rule="evenodd" clip-rule="evenodd" d="M156.342 188.645H159.536V189.485H155.349V182.103H156.342V188.645Z" fill="#FFEACC"/>
<path fill-rule="evenodd" clip-rule="evenodd" d="M166.285 185.796C166.285 185.343 166.222 184.936 166.099 184.576C165.976 184.215 165.801 183.91 165.573 183.661C165.347 183.412 165.073 183.221 164.749 183.086C164.426 182.953 164.066 182.885 163.668 182.885C163.273 182.885 162.914 182.953 162.591 183.086C162.268 183.221 161.993 183.412 161.764 183.661C161.536 183.91 161.36 184.215 161.236 184.576C161.113 184.936 161.05 185.343 161.05 185.796C161.05 186.25 161.113 186.656 161.236 187.014C161.36 187.374 161.536 187.678 161.764 187.926C161.993 188.175 162.268 188.366 162.591 188.497C162.914 188.63 163.273 188.697 163.668 188.697C164.066 188.697 164.426 188.63 164.749 188.497C165.073 188.366 165.347 188.175 165.573 187.926C165.801 187.678 165.976 187.374 166.099 187.014C166.222 186.656 166.285 186.25 166.285 185.796M167.31 185.796C167.31 186.35 167.222 186.857 167.047 187.319C166.872 187.78 166.624 188.177 166.305 188.511C165.985 188.844 165.602 189.103 165.154 189.286C164.705 189.47 164.21 189.562 163.668 189.562C163.124 189.562 162.63 189.47 162.184 189.286C161.737 189.103 161.354 188.844 161.035 188.511C160.716 188.177 160.469 187.78 160.294 187.319C160.118 186.857 160.03 186.35 160.03 185.796C160.03 185.243 160.118 184.736 160.294 184.274C160.469 183.812 160.716 183.414 161.035 183.079C161.354 182.745 161.737 182.484 162.184 182.298C162.63 182.113 163.124 182.02 163.668 182.02C164.21 182.02 164.705 182.113 165.154 182.298C165.602 182.484 165.985 182.745 166.305 183.079C166.624 183.414 166.872 183.812 167.047 184.274C167.222 184.736 167.31 185.243 167.31 185.796" fill="#FFEACC"/>
<path fill-rule="evenodd" clip-rule="evenodd" d="M172.708 183.257C172.676 183.308 172.643 183.347 172.607 183.373C172.571 183.399 172.527 183.412 172.476 183.412C172.417 183.412 172.349 183.383 172.271 183.324C172.191 183.265 172.092 183.201 171.974 183.131C171.855 183.061 171.713 182.996 171.546 182.938C171.38 182.879 171.177 182.85 170.941 182.85C170.718 182.85 170.521 182.88 170.351 182.94C170.182 183 170.039 183.082 169.923 183.185C169.809 183.289 169.721 183.409 169.663 183.548C169.605 183.687 169.576 183.837 169.576 183.999C169.576 184.205 169.627 184.376 169.727 184.511C169.829 184.647 169.963 184.763 170.129 184.859C170.297 184.956 170.485 185.039 170.696 185.109C170.908 185.179 171.123 185.253 171.345 185.328C171.567 185.403 171.784 185.489 171.994 185.582C172.205 185.678 172.394 185.797 172.561 185.941C172.728 186.086 172.862 186.262 172.962 186.472C173.064 186.681 173.115 186.938 173.115 187.244C173.115 187.567 173.059 187.871 172.95 188.154C172.84 188.436 172.679 188.683 172.468 188.893C172.256 189.103 171.998 189.267 171.691 189.388C171.383 189.507 171.034 189.568 170.642 189.568C170.161 189.568 169.725 189.481 169.334 189.307C168.942 189.134 168.608 188.9 168.329 188.604L168.618 188.13C168.644 188.093 168.679 188.06 168.719 188.035C168.757 188.009 168.801 187.997 168.849 187.997C168.894 187.997 168.945 188.014 169.001 188.051C169.058 188.086 169.123 188.133 169.195 188.187C169.267 188.242 169.349 188.302 169.442 188.368C169.535 188.433 169.641 188.492 169.759 188.548C169.877 188.602 170.012 188.648 170.164 188.684C170.314 188.72 170.483 188.738 170.673 188.738C170.91 188.738 171.121 188.705 171.307 188.64C171.492 188.576 171.649 188.483 171.778 188.365C171.906 188.247 172.006 188.105 172.074 187.939C172.142 187.775 172.177 187.591 172.177 187.388C172.177 187.166 172.127 186.982 172.025 186.84C171.924 186.698 171.791 186.578 171.626 186.481C171.462 186.386 171.272 186.305 171.059 186.237C170.847 186.17 170.63 186.101 170.411 186.031C170.19 185.96 169.974 185.879 169.761 185.786C169.548 185.693 169.36 185.574 169.195 185.426C169.03 185.279 168.897 185.093 168.795 184.872C168.694 184.651 168.643 184.377 168.643 184.051C168.643 183.79 168.694 183.536 168.795 183.293C168.897 183.049 169.045 182.833 169.238 182.644C169.432 182.455 169.671 182.305 169.954 182.191C170.238 182.077 170.563 182.02 170.931 182.02C171.342 182.02 171.717 182.087 172.056 182.217C172.394 182.347 172.693 182.536 172.95 182.782L172.708 183.257Z" fill="#FFEACC"/>
<path fill-rule="evenodd" clip-rule="evenodd" d="M179.708 182.103V182.942H177.318V189.485H176.324V182.942H173.928V182.103H179.708Z" fill="#FFEACC"/>
<path fill-rule="evenodd" clip-rule="evenodd" d="M185.545 182.103V182.917H181.996V185.369H184.869V186.152H181.996V188.671H185.551L185.545 189.485H180.996V182.103H185.545Z" fill="#FFEACC"/>
<path fill-rule="evenodd" clip-rule="evenodd" d="M192.164 187.96C192.219 187.96 192.267 187.982 192.309 188.027L192.704 188.455C192.403 188.805 192.036 189.078 191.605 189.274C191.174 189.469 190.653 189.567 190.042 189.567C189.513 189.567 189.032 189.475 188.6 189.291C188.167 189.109 187.798 188.85 187.492 188.519C187.187 188.188 186.95 187.79 186.782 187.327C186.612 186.863 186.529 186.353 186.529 185.796C186.529 185.24 186.616 184.731 186.791 184.267C186.966 183.803 187.214 183.404 187.531 183.072C187.848 182.739 188.229 182.48 188.672 182.296C189.115 182.112 189.605 182.021 190.14 182.021C190.665 182.021 191.129 182.105 191.531 182.273C191.932 182.441 192.286 182.669 192.592 182.958L192.263 183.417C192.242 183.451 192.214 183.479 192.182 183.502C192.149 183.524 192.106 183.535 192.051 183.535C191.989 183.535 191.914 183.502 191.824 183.435C191.735 183.367 191.619 183.293 191.474 183.211C191.33 183.129 191.15 183.053 190.933 182.987C190.717 182.92 190.451 182.886 190.135 182.886C189.754 182.886 189.405 182.953 189.089 183.085C188.772 183.217 188.501 183.408 188.272 183.659C188.044 183.909 187.867 184.215 187.739 184.576C187.613 184.936 187.549 185.343 187.549 185.796C187.549 186.257 187.615 186.666 187.746 187.028C187.879 187.389 188.06 187.693 188.288 187.943C188.516 188.191 188.786 188.381 189.097 188.512C189.407 188.642 189.743 188.707 190.104 188.707C190.324 188.707 190.522 188.694 190.699 188.669C190.875 188.643 191.039 188.602 191.187 188.547C191.337 188.493 191.477 188.423 191.605 188.339C191.734 188.255 191.862 188.154 191.989 188.037C192.048 187.986 192.106 187.96 192.164 187.96" fill="#FFEACC"/>
<path fill-rule="evenodd" clip-rule="evenodd" d="M200.04 189.485H199.041V186.126H195.059V189.485H194.06V182.103H195.059V185.395H199.041V182.103H200.04V189.485Z" fill="#FFEACC"/>
</g>
</svg>
