<svg class="next-arrows" width="8" height="8" viewBox="0 0 8 8" fill="none" xmlns="http://www.w3.org/2000/svg">
<path d="M4.33483 3.978V4.293L2.00383 7.884L1.18483 7.506C0.974828 7.41 0.851828 7.278 0.815828 7.11C0.785828 6.942 0.824828 6.762 0.932828 6.57L2.10283 4.527C2.19283 4.371 2.29483 4.239 2.40883 4.131C2.29483 4.023 2.19283 3.891 2.10283 3.735L0.932828 1.701C0.824828 1.509 0.785828 1.329 0.815828 1.161C0.851828 0.993 0.974828 0.858 1.18483 0.755999L2.00383 0.387L4.33483 3.978ZM7.42183 3.978V4.293L5.09083 7.884L4.27183 7.506C4.06183 7.41 3.93883 7.278 3.90283 7.11C3.87283 6.942 3.91183 6.762 4.01983 6.57L5.18983 4.527C5.27983 4.371 5.38183 4.239 5.49583 4.131C5.38183 4.023 5.27983 3.891 5.18983 3.735L4.01983 1.701C3.91183 1.509 3.87283 1.329 3.90283 1.161C3.93883 0.993 4.06183 0.858 4.27183 0.755999L5.09083 0.387L7.42183 3.978Z" fill="black"/>
</svg>
