<svg width="210" height="190" viewBox="0 0 210 190" fill="none" xmlns="http://www.w3.org/2000/svg">
<path fill-rule="evenodd" clip-rule="evenodd" d="M21.039 144.073C20.861 144.364 20.676 144.578 20.482 144.714C20.288 144.851 20.046 144.921 19.756 144.921C19.449 144.921 19.106 144.791 18.727 144.534C18.347 144.275 17.879 143.988 17.322 143.673C16.766 143.359 16.108 143.068 15.349 142.803C14.591 142.537 13.688 142.403 12.638 142.403C11.669 142.403 10.818 142.524 10.084 142.765C9.35 143.008 8.732 143.347 8.232 143.783C7.731 144.219 7.356 144.731 7.106 145.32C6.856 145.909 6.732 146.551 6.732 147.245C6.732 148.132 6.965 148.871 7.433 149.46C7.901 150.049 8.518 150.554 9.285 150.973C10.052 151.393 10.927 151.759 11.912 152.075C12.896 152.39 13.901 152.724 14.926 153.079C15.95 153.435 16.955 153.839 17.939 154.29C18.924 154.741 19.799 155.315 20.566 156.009C21.333 156.703 21.951 157.55 22.419 158.551C22.887 159.551 23.121 160.77 23.121 162.206C23.121 163.755 22.855 165.208 22.321 166.563C21.789 167.919 21.019 169.102 20.01 170.11C19.001 171.12 17.758 171.914 16.282 172.495C14.805 173.077 13.122 173.367 11.234 173.367C10.12 173.367 9.035 173.258 7.978 173.04C6.921 172.821 5.912 172.516 4.952 172.12C3.991 171.724 3.091 171.244 2.252 170.679C1.413 170.114 0.663 169.486 0 168.791L1.647 166.08C1.792 165.854 1.978 165.676 2.204 165.547C2.429 165.418 2.679 165.354 2.954 165.354C3.325 165.354 3.737 165.527 4.189 165.874C4.64 166.222 5.185 166.6 5.824 167.012C6.461 167.424 7.231 167.802 8.135 168.15C9.039 168.497 10.12 168.67 11.379 168.67C13.429 168.67 15.015 168.17 16.136 167.17C17.258 166.169 17.818 164.788 17.818 163.029C17.818 162.045 17.584 161.242 17.117 160.62C16.649 159.999 16.032 159.479 15.265 159.059C14.498 158.64 13.622 158.284 12.638 157.994C11.654 157.703 10.653 157.393 9.636 157.062C8.62 156.732 7.618 156.343 6.634 155.9C5.65 155.456 4.774 154.875 4.007 154.157C3.241 153.439 2.623 152.551 2.155 151.494C1.687 150.437 1.454 149.117 1.454 147.535C1.454 146.276 1.699 145.058 2.191 143.88C2.684 142.702 3.402 141.657 4.346 140.744C5.291 139.833 6.457 139.102 7.845 138.554C9.232 138.005 10.814 137.73 12.59 137.73C14.591 137.73 16.427 138.045 18.098 138.675C19.768 139.305 21.208 140.2 22.419 141.362L21.039 144.073Z" fill="#FFEACC"/>
<mask id="mask0_0_3753" style="mask-type:luminance" maskUnits="userSpaceOnUse" x="0" y="0" width="210" height="190">
<path fill-rule="evenodd" clip-rule="evenodd" d="M0 189.572H209.554V0H0V189.572Z" fill="white"/>
</mask>
<g mask="url(#mask0_0_3753)">
<path fill-rule="evenodd" clip-rule="evenodd" d="M29.2222 172.979H34.9112V138.117H29.2222V172.979Z" fill="#FFEACC"/>
<path fill-rule="evenodd" clip-rule="evenodd" d="M46.76 138.154C46.93 138.178 47.088 138.223 47.233 138.287C47.378 138.352 47.515 138.449 47.645 138.578C47.773 138.708 47.911 138.869 48.056 139.062L67.229 163.683C67.181 163.183 67.145 162.69 67.121 162.206C67.097 161.722 67.084 161.27 67.084 160.851V138.118H72.047V172.98H69.166C68.731 172.98 68.359 172.903 68.053 172.749C67.745 172.597 67.455 172.343 67.181 171.987L48.031 147.39C48.08 147.859 48.116 148.322 48.141 148.782C48.165 149.243 48.177 149.666 48.177 150.053V172.98H43.189V138.118H46.143C46.385 138.118 46.591 138.13 46.76 138.154" fill="#FFEACC"/>
<path fill-rule="evenodd" clip-rule="evenodd" d="M107.32 155.549C107.32 153.548 107.05 151.747 106.509 150.15C105.968 148.553 105.193 147.196 104.185 146.083C103.176 144.969 101.954 144.113 100.517 143.517C99.0796 142.92 97.4666 142.621 95.6746 142.621C93.8996 142.621 92.2936 142.92 90.8566 143.517C89.4216 144.113 88.1946 144.969 87.1776 146.083C86.1606 147.196 85.3776 148.553 84.8296 150.15C84.2806 151.747 84.0056 153.548 84.0056 155.549C84.0056 157.566 84.2806 159.374 84.8296 160.971C85.3776 162.569 86.1606 163.921 87.1776 165.026C88.1946 166.132 89.4216 166.979 90.8566 167.568C92.2936 168.158 93.8996 168.453 95.6746 168.453C97.4666 168.453 99.0796 168.158 100.517 167.568C101.954 166.979 103.176 166.132 104.185 165.026C105.193 163.921 105.968 162.569 106.509 160.971C107.05 159.374 107.32 157.566 107.32 155.549M113.107 155.549C113.107 158.131 112.686 160.512 111.848 162.69C111.008 164.869 109.825 166.745 108.3 168.319C106.775 169.892 104.943 171.123 102.805 172.011C100.666 172.899 98.2906 173.343 95.6746 173.343C93.0756 173.343 90.7086 172.899 88.5696 172.011C86.4306 171.123 84.5946 169.892 83.0616 168.319C81.5276 166.745 80.3426 164.869 79.5026 162.69C78.6636 160.512 78.2446 158.131 78.2446 155.549C78.2446 152.966 78.6636 150.586 79.5026 148.407C80.3426 146.229 81.5276 144.348 83.0616 142.765C84.5946 141.184 86.4306 139.95 88.5696 139.061C90.7086 138.174 93.0756 137.73 95.6746 137.73C98.2906 137.73 100.666 138.174 102.805 139.061C104.943 139.95 106.775 141.184 108.3 142.765C109.825 144.348 111.008 146.229 111.848 148.407C112.686 150.586 113.107 152.966 113.107 155.549" fill="#FFEACC"/>
<path fill-rule="evenodd" clip-rule="evenodd" d="M124.968 155.887H130.149C131.407 155.887 132.517 155.726 133.478 155.403C134.438 155.08 135.237 154.624 135.874 154.035C136.512 153.446 136.993 152.732 137.315 151.892C137.638 151.054 137.799 150.117 137.799 149.084C137.799 148.067 137.641 147.155 137.326 146.349C137.012 145.542 136.54 144.856 135.911 144.291C135.281 143.727 134.487 143.294 133.526 142.995C132.566 142.698 131.44 142.548 130.149 142.548H124.968V155.887ZM124.968 160.366V172.979H119.303V138.117H130.149C132.424 138.117 134.398 138.384 136.068 138.916C137.739 139.45 139.118 140.195 140.208 141.155C141.297 142.116 142.108 143.27 142.641 144.618C143.174 145.965 143.44 147.454 143.44 149.084C143.44 150.746 143.157 152.268 142.593 153.647C142.027 155.027 141.189 156.214 140.075 157.207C138.961 158.199 137.578 158.973 135.922 159.531C134.268 160.087 132.344 160.366 130.149 160.366H124.968Z" fill="#FFEACC"/>
<path fill-rule="evenodd" clip-rule="evenodd" d="M167.092 144.073C166.914 144.364 166.729 144.578 166.535 144.714C166.342 144.851 166.099 144.921 165.809 144.921C165.502 144.921 165.159 144.791 164.78 144.534C164.4 144.275 163.932 143.988 163.376 143.673C162.819 143.359 162.161 143.068 161.402 142.803C160.644 142.537 159.741 142.403 158.691 142.403C157.723 142.403 156.871 142.524 156.138 142.765C155.403 143.008 154.785 143.347 154.285 143.783C153.785 144.219 153.409 144.731 153.16 145.32C152.909 145.909 152.785 146.551 152.785 147.245C152.785 148.132 153.018 148.871 153.486 149.46C153.954 150.049 154.572 150.554 155.338 150.973C156.105 151.393 156.98 151.759 157.965 152.075C158.95 152.39 159.954 152.724 160.98 153.079C162.004 153.435 163.009 153.839 163.993 154.29C164.977 154.741 165.853 155.315 166.62 156.009C167.387 156.703 168.004 157.55 168.472 158.551C168.94 159.551 169.174 160.77 169.174 162.206C169.174 163.755 168.908 165.208 168.375 166.563C167.842 167.919 167.072 169.102 166.063 170.11C165.054 171.12 163.812 171.914 162.335 172.495C160.858 173.077 159.175 173.367 157.287 173.367C156.173 173.367 155.088 173.258 154.031 173.04C152.974 172.821 151.965 172.516 151.005 172.12C150.044 171.724 149.145 171.244 148.305 170.679C147.466 170.114 146.716 169.486 146.053 168.791L147.701 166.08C147.845 165.854 148.032 165.676 148.257 165.547C148.483 165.418 148.732 165.354 149.007 165.354C149.378 165.354 149.79 165.527 150.242 165.874C150.694 166.222 151.239 166.6 151.877 167.012C152.514 167.424 153.284 167.802 154.188 168.15C155.092 168.497 156.173 168.67 157.432 168.67C159.482 168.67 161.068 168.17 162.19 167.17C163.311 166.169 163.872 164.788 163.872 163.029C163.872 162.045 163.638 161.242 163.17 160.62C162.702 159.999 162.085 159.479 161.318 159.059C160.551 158.64 159.675 158.284 158.691 157.994C157.707 157.703 156.706 157.393 155.69 157.062C154.673 156.732 153.672 156.343 152.687 155.9C151.703 155.456 150.827 154.875 150.061 154.157C149.294 153.439 148.676 152.551 148.208 151.494C147.74 150.437 147.507 149.117 147.507 147.535C147.507 146.276 147.752 145.058 148.245 143.88C148.737 142.702 149.455 141.657 150.4 140.744C151.344 139.833 152.51 139.102 153.898 138.554C155.286 138.005 156.868 137.73 158.643 137.73C160.644 137.73 162.48 138.045 164.151 138.675C165.821 139.305 167.261 140.2 168.472 141.362L167.092 144.073Z" fill="#FFEACC"/>
<path fill-rule="evenodd" clip-rule="evenodd" d="M175.274 172.979H180.963V138.117H175.274V172.979Z" fill="#FFEACC"/>
<path fill-rule="evenodd" clip-rule="evenodd" d="M207.472 144.073C207.294 144.364 207.109 144.578 206.915 144.714C206.722 144.851 206.479 144.921 206.189 144.921C205.882 144.921 205.539 144.791 205.16 144.534C204.78 144.275 204.312 143.988 203.755 143.673C203.199 143.359 202.541 143.068 201.782 142.803C201.024 142.537 200.121 142.403 199.071 142.403C198.102 142.403 197.251 142.524 196.518 142.765C195.783 143.008 195.165 143.347 194.665 143.783C194.165 144.219 193.789 144.731 193.54 145.32C193.289 145.909 193.165 146.551 193.165 147.245C193.165 148.132 193.398 148.871 193.866 149.46C194.334 150.049 194.951 150.554 195.718 150.973C196.485 151.393 197.36 151.759 198.345 152.075C199.329 152.39 200.334 152.724 201.359 153.079C202.384 153.435 203.388 153.839 204.373 154.29C205.357 154.741 206.232 155.315 206.999 156.009C207.766 156.703 208.384 157.55 208.852 158.551C209.32 159.551 209.554 160.77 209.554 162.206C209.554 163.755 209.288 165.208 208.755 166.563C208.222 167.919 207.452 169.102 206.443 170.11C205.434 171.12 204.191 171.914 202.715 172.495C201.238 173.077 199.555 173.367 197.667 173.367C196.553 173.367 195.468 173.258 194.411 173.04C193.354 172.821 192.345 172.516 191.385 172.12C190.424 171.724 189.525 171.244 188.685 170.679C187.846 170.114 187.096 169.486 186.433 168.791L188.081 166.08C188.225 165.854 188.411 165.676 188.637 165.547C188.862 165.418 189.112 165.354 189.387 165.354C189.758 165.354 190.17 165.527 190.622 165.874C191.073 166.222 191.618 166.6 192.257 167.012C192.894 167.424 193.664 167.802 194.568 168.15C195.472 168.497 196.553 168.67 197.812 168.67C199.862 168.67 201.448 168.17 202.569 167.17C203.691 166.169 204.251 164.788 204.251 163.029C204.251 162.045 204.017 161.242 203.55 160.62C203.082 159.999 202.465 159.479 201.698 159.059C200.931 158.64 200.055 158.284 199.071 157.994C198.087 157.703 197.086 157.393 196.07 157.062C195.053 156.732 194.052 156.343 193.067 155.9C192.083 155.456 191.207 154.875 190.44 154.157C189.674 153.439 189.056 152.551 188.588 151.494C188.12 150.437 187.887 149.117 187.887 147.535C187.887 146.276 188.132 145.058 188.624 143.88C189.117 142.702 189.835 141.657 190.78 140.744C191.724 139.833 192.89 139.102 194.278 138.554C195.666 138.005 197.248 137.73 199.023 137.73C201.024 137.73 202.86 138.045 204.531 138.675C206.201 139.305 207.641 140.2 208.852 141.362L207.472 144.073Z" fill="#FFEACC"/>
<path fill-rule="evenodd" clip-rule="evenodd" d="M95.7961 57.3194C104.209 50.7514 112.533 44.2514 120.995 37.6454C118.547 35.9244 116.167 34.2494 113.768 32.5634C105.361 39.1274 97.0051 45.6494 88.5591 52.2434C90.9891 53.9474 93.3341 55.5924 95.7961 57.3194" fill="#FFEACC"/>
<path fill-rule="evenodd" clip-rule="evenodd" d="M131.865 57.5702C129.41 55.7872 127.053 54.0762 124.698 52.3662C129.822 48.4062 145.66 35.8882 149.289 33.3582C155.292 28.6872 164.767 30.0272 169.41 35.6752C172.838 39.8452 174.137 44.5092 172.114 49.6962C170.039 55.0132 166.091 58.2012 160.468 59.2412C156.294 60.0122 152.506 59.2002 149.136 56.4912C147.175 54.9162 145.08 53.5062 142.957 51.9572C145.169 50.2842 150.108 46.3452 150.108 46.3452C150.108 46.3452 153.279 48.9172 154.519 49.8262C157.152 51.7552 160.753 51.3732 163.003 48.9152C165.144 46.5762 165.226 43.6222 163.214 41.2352C161.086 38.7112 157.341 38.0282 154.764 39.9372C150.977 42.7422 147.334 45.7412 143.601 48.6212C139.716 51.6192 135.798 54.5742 131.865 57.5702" fill="#FFEACC"/>
<path fill-rule="evenodd" clip-rule="evenodd" d="M77.6892 32.4752C80.1452 34.2572 82.5022 35.9692 84.8562 37.6792C79.7322 41.6392 63.8942 54.1572 60.2652 56.6872C54.2622 61.3582 44.7872 60.0182 40.1452 54.3702C36.7162 50.2002 35.4172 45.5362 37.4402 40.3492C39.5142 35.0322 43.4622 31.8442 49.0862 30.8042C53.2602 30.0322 57.0482 30.8452 60.4182 33.5542C62.3792 35.1292 64.4742 36.5392 66.5972 38.0882C64.3852 39.7612 59.4462 43.7002 59.4462 43.7002C59.4462 43.7002 56.2752 41.1282 55.0352 40.2192C52.4032 38.2902 48.8012 38.6722 46.5512 41.1302C44.4102 43.4692 44.3292 46.4232 46.3402 48.8102C48.4682 51.3342 52.2122 52.0172 54.7902 50.1082C58.5782 47.3032 62.2202 44.3042 65.9532 41.4242C69.8382 38.4262 73.7562 35.4712 77.6892 32.4752" fill="#FFEACC"/>
<path fill-rule="evenodd" clip-rule="evenodd" d="M103.114 37.9809C100.697 39.7979 98.4389 41.4939 96.0719 43.2719C94.8719 42.3949 93.6859 41.5238 92.4959 40.6588C86.4699 36.2838 80.4279 31.9298 74.4179 27.5318C67.7859 22.6798 65.9909 13.8828 70.2159 7.13685C74.4849 0.320849 83.1169 -1.99715 90.3409 1.86485C92.1179 2.81485 93.6569 4.21185 95.3029 5.40685C97.8629 7.26785 100.422 9.13185 103.144 11.1128C100.691 12.9578 98.3689 14.7038 96.0209 16.4698C93.0709 14.3118 90.1729 12.2208 87.3069 10.0848C83.8799 7.53185 79.9069 7.93585 77.5789 11.1158C75.2749 14.2618 76.1789 18.3578 79.6069 20.8378C87.4029 26.4798 95.1609 32.1759 103.114 37.9809" fill="#FFEACC"/>
<path fill-rule="evenodd" clip-rule="evenodd" d="M106.333 51.9046C108.75 50.0886 111.008 48.3916 113.375 46.6136C114.575 47.4906 115.761 48.3616 116.951 49.2256C122.977 53.6006 129.019 57.9566 135.029 62.3526C141.661 67.2056 143.456 76.0026 139.231 82.7486C134.962 89.5646 126.33 91.8826 119.106 88.0206C117.329 87.0706 115.79 85.6736 114.144 84.4786C111.584 82.6176 109.025 80.7536 106.303 78.7726C108.757 76.9276 111.078 75.1816 113.426 73.4156C116.376 75.5736 119.274 77.6646 122.14 79.7996C125.567 82.3526 129.54 81.9496 131.868 78.7696C134.172 75.6236 133.268 71.5276 129.84 69.0476C122.044 63.4046 114.286 57.7096 106.333 51.9046" fill="#FFEACC"/>
<path fill-rule="evenodd" clip-rule="evenodd" d="M131.664 29.9708C129.243 28.2118 126.918 26.5228 124.419 24.7078C126.424 23.2708 128.336 21.9118 130.236 20.5358C132.83 18.6588 133.784 15.5018 132.646 12.6108C131.543 9.80682 128.775 7.99282 125.794 8.48982C124.445 8.71382 123.062 9.42282 121.947 10.2508C113.577 16.4708 105.27 22.7758 96.9414 29.0518C96.5464 29.3488 96.1364 29.6268 95.6354 29.9838C93.2794 28.2748 90.9224 26.5648 88.4224 24.7508C89.3384 24.0898 90.1374 23.5348 90.9124 22.9488C99.6294 16.3618 108.355 9.78582 117.053 3.17382C123.859 -2.00018 133.434 -0.702176 138.509 6.12982C143.526 12.8828 141.946 22.6248 135.038 27.5428C133.947 28.3198 132.863 29.1078 131.664 29.9708" fill="#FFEACC"/>
<path fill-rule="evenodd" clip-rule="evenodd" d="M77.6968 59.9119C80.1178 61.6709 82.4428 63.3599 84.9418 65.1749C82.9358 66.6119 81.0248 67.9699 79.1238 69.3469C76.5298 71.2239 75.5768 74.3799 76.7148 77.2719C77.8178 80.0759 80.5858 81.8889 83.5668 81.3929C84.9158 81.1679 86.2978 80.4599 87.4138 79.6319C95.7838 73.4119 104.091 67.1069 112.42 60.8299C112.815 60.5329 113.225 60.2559 113.726 59.8989C116.082 61.6079 118.438 63.3179 120.938 65.1319C120.023 65.7929 119.224 66.3479 118.448 66.9339C109.732 73.5209 101.006 80.0969 92.3078 86.7089C85.5018 91.8829 75.9268 90.5849 70.8508 83.7529C65.8348 76.9999 67.4148 67.2589 74.3218 62.3399C75.4138 61.5619 76.4968 60.7749 77.6968 59.9119" fill="#FFEACC"/>
<path fill-rule="evenodd" clip-rule="evenodd" d="M113.616 19.3898C122.249 25.6658 130.792 31.8758 139.475 38.1888C137.088 39.9928 134.766 41.7468 132.427 43.5148C123.799 37.2438 115.225 31.0108 106.558 24.7118C108.927 22.9248 111.215 21.1998 113.616 19.3898" fill="#FFEACC"/>
<path fill-rule="evenodd" clip-rule="evenodd" d="M102.954 65.2535C100.586 67.0325 98.2868 68.7595 95.9598 70.5085C87.3728 64.2815 78.8168 58.0785 70.1338 51.7835C72.5238 49.9865 74.8458 48.2405 77.1808 46.4845C85.8028 52.7625 94.3388 58.9805 102.954 65.2535" fill="#FFEACC"/>
<path fill-rule="evenodd" clip-rule="evenodd" d="M191.186 120.601C191.186 121.303 190.618 121.872 189.915 121.872H20.646C19.944 121.872 19.376 121.303 19.376 120.601C19.376 119.899 19.944 119.33 20.646 119.33H189.915C190.618 119.33 191.186 119.899 191.186 120.601" fill="#FFEACC"/>
<path fill-rule="evenodd" clip-rule="evenodd" d="M13.1655 180.124H13.8355C13.8755 180.124 13.9255 180.13 13.9825 180.139C14.0395 180.151 14.0875 180.184 14.1295 180.243L14.7575 181.021C14.7675 181.038 14.7775 181.054 14.7885 181.07C14.7975 181.085 14.8095 181.1 14.8185 181.114C14.8255 181.1 14.8345 181.085 14.8445 181.07C14.8545 181.054 14.8675 181.038 14.8815 181.021L15.5045 180.248C15.5485 180.186 15.6005 180.151 15.6565 180.139C15.7135 180.13 15.7615 180.124 15.8035 180.124H16.4725L15.2475 181.521H14.3915L13.1655 180.124ZM16.7625 187.959C16.8155 187.959 16.8635 187.982 16.9055 188.026L17.3015 188.454C17.0005 188.804 16.6325 189.077 16.2025 189.273C15.7715 189.469 15.2505 189.566 14.6385 189.566C14.1095 189.566 13.6295 189.474 13.1965 189.291C12.7645 189.108 12.3945 188.85 12.0895 188.518C11.7825 188.187 11.5465 187.789 11.3775 187.326C11.2095 186.862 11.1255 186.352 11.1255 185.796C11.1255 185.24 11.2135 184.73 11.3885 184.266C11.5635 183.803 11.8095 183.404 12.1275 183.071C12.4455 182.738 12.8265 182.48 13.2675 182.295C13.7105 182.112 14.2005 182.02 14.7375 182.02C15.2615 182.02 15.7255 182.104 16.1275 182.272C16.5285 182.441 16.8835 182.669 17.1875 182.958L16.8575 183.416C16.8375 183.45 16.8115 183.478 16.7795 183.501C16.7455 183.523 16.7015 183.534 16.6475 183.534C16.5855 183.534 16.5105 183.501 16.4205 183.434C16.3325 183.367 16.2135 183.292 16.0705 183.21C15.9265 183.128 15.7475 183.053 15.5305 182.986C15.3135 182.919 15.0475 182.885 14.7315 182.885C14.3505 182.885 14.0015 182.952 13.6865 183.084C13.3705 183.216 13.0975 183.407 12.8685 183.658C12.6405 183.908 12.4635 184.215 12.3355 184.575C12.2085 184.935 12.1445 185.343 12.1445 185.796C12.1445 186.257 12.2115 186.666 12.3445 187.027C12.4755 187.388 12.6555 187.692 12.8845 187.942C13.1125 188.19 13.3835 188.38 13.6935 188.511C14.0045 188.641 14.3405 188.707 14.7005 188.707C14.9195 188.707 15.1195 188.693 15.2945 188.668C15.4725 188.642 15.6355 188.601 15.7855 188.546C15.9345 188.492 16.0735 188.422 16.2025 188.338C16.3305 188.254 16.4585 188.154 16.5855 188.037C16.6435 187.985 16.7015 187.959 16.7625 187.959V187.959Z" fill="#FFEACC"/>
<path fill-rule="evenodd" clip-rule="evenodd" d="M18.6619 189.484H19.6609V182.102H18.6619V189.484ZM21.1249 179.944L19.4449 181.417C19.3929 181.465 19.3439 181.494 19.2959 181.505C19.2469 181.515 19.1899 181.52 19.1199 181.52H18.4609L19.6509 180.109C19.7079 180.033 19.7679 179.987 19.8289 179.97C19.8889 179.952 19.9749 179.944 20.0889 179.944H21.1249Z" fill="#FFEACC"/>
<path fill-rule="evenodd" clip-rule="evenodd" d="M22.3707 182.111C22.4017 182.116 22.4287 182.124 22.4527 182.136C22.4767 182.149 22.5017 182.166 22.5247 182.187C22.5487 182.21 22.5747 182.238 22.6027 182.273L26.8727 187.831C26.8657 187.742 26.8597 187.656 26.8547 187.571C26.8497 187.488 26.8477 187.407 26.8477 187.332V182.103H27.7227V189.485H27.2227C27.1437 189.485 27.0777 189.471 27.0247 189.444C26.9707 189.416 26.9197 189.37 26.8677 189.304L22.5977 183.746C22.6037 183.832 22.6097 183.916 22.6127 183.998C22.6167 184.081 22.6177 184.157 22.6177 184.226V189.485H21.7427V182.103H22.2577C22.3017 182.103 22.3397 182.105 22.3707 182.111" fill="#FFEACC"/>
<path fill-rule="evenodd" clip-rule="evenodd" d="M30.9681 186.744H33.7241L32.5641 183.74C32.5281 183.651 32.4911 183.549 32.4531 183.432C32.4181 183.315 32.3811 183.189 32.3431 183.056C32.3091 183.189 32.2731 183.316 32.2371 183.434C32.2021 183.553 32.1651 183.657 32.1271 183.746L30.9681 186.744ZM35.8051 189.485H35.0321C34.9431 189.485 34.8701 189.462 34.8161 189.417C34.7611 189.373 34.7191 189.317 34.6921 189.247L34.0021 187.464H30.6901L29.9991 189.247C29.9791 189.309 29.9391 189.363 29.8811 189.412C29.8231 189.46 29.7511 189.485 29.6651 189.485H28.8921L31.8441 182.102H32.8531L35.8051 189.485Z" fill="#FFEACC"/>
<path fill-rule="evenodd" clip-rule="evenodd" d="M38.1802 182.102H38.9782C39.0682 182.102 39.1392 182.124 39.1942 182.169C39.2492 182.214 39.2902 182.27 39.3182 182.339L41.3992 187.547C41.4432 187.664 41.4872 187.791 41.5282 187.928C41.5692 188.066 41.6082 188.208 41.6462 188.357C41.6772 188.208 41.7122 188.066 41.7522 187.928C41.7912 187.791 41.8332 187.664 41.8782 187.547L43.9542 182.339C43.9752 182.28 44.0152 182.227 44.0752 182.176C44.1362 182.127 44.2082 182.102 44.2942 182.102H45.0922L42.0842 189.484H41.1882L38.1802 182.102Z" fill="#FFEACC"/>
<path fill-rule="evenodd" clip-rule="evenodd" d="M49.7176 185.338H50.0946C50.2246 185.338 50.3296 185.321 50.4076 185.289C50.4876 185.256 50.5596 185.2 50.6246 185.121L53.0826 182.34C53.1506 182.251 53.2226 182.188 53.2976 182.154C53.3736 182.119 53.4656 182.103 53.5766 182.103H54.4216L51.6086 185.281C51.5406 185.363 51.4736 185.432 51.4106 185.485C51.3476 185.538 51.2786 185.582 51.2076 185.616C51.3006 185.647 51.3836 185.692 51.4596 185.752C51.5346 185.813 51.6086 185.89 51.6816 185.987L54.6166 189.485H53.7516C53.6866 189.485 53.6306 189.481 53.5836 189.471C53.5376 189.463 53.4966 189.449 53.4636 189.431C53.4286 189.411 53.3986 189.389 53.3726 189.363C53.3476 189.338 53.3216 189.308 53.2976 189.273L50.7536 186.343C50.6846 186.256 50.6106 186.196 50.5316 186.159C50.4536 186.123 50.3326 186.105 50.1716 186.105H49.7176V189.485H48.7246V182.103H49.7176V185.338Z" fill="#FFEACC"/>
<path fill-rule="evenodd" clip-rule="evenodd" d="M61.0978 185.796C61.0978 185.343 61.0358 184.936 60.9118 184.576C60.7888 184.215 60.6138 183.91 60.3868 183.661C60.1608 183.412 59.8858 183.221 59.5628 183.086C59.2398 182.953 58.8788 182.885 58.4808 182.885C58.0858 182.885 57.7268 182.953 57.4048 183.086C57.0818 183.221 56.8058 183.412 56.5768 183.661C56.3488 183.91 56.1728 184.215 56.0498 184.576C55.9258 184.936 55.8628 185.343 55.8628 185.796C55.8628 186.25 55.9258 186.656 56.0498 187.014C56.1728 187.374 56.3488 187.678 56.5768 187.926C56.8058 188.175 57.0818 188.366 57.4048 188.497C57.7268 188.63 58.0858 188.697 58.4808 188.697C58.8788 188.697 59.2398 188.63 59.5628 188.497C59.8858 188.366 60.1608 188.175 60.3868 187.926C60.6138 187.678 60.7888 187.374 60.9118 187.014C61.0358 186.656 61.0978 186.25 61.0978 185.796M62.1228 185.796C62.1228 186.35 62.0358 186.857 61.8598 187.319C61.6848 187.78 61.4378 188.177 61.1178 188.511C60.7988 188.844 60.4148 189.103 59.9668 189.286C59.5188 189.47 59.0238 189.562 58.4808 189.562C57.9378 189.562 57.4438 189.47 56.9968 189.286C56.5508 189.103 56.1678 188.844 55.8488 188.511C55.5288 188.177 55.2818 187.78 55.1068 187.319C54.9318 186.857 54.8428 186.35 54.8428 185.796C54.8428 185.243 54.9318 184.736 55.1068 184.274C55.2818 183.812 55.5288 183.414 55.8488 183.079C56.1678 182.745 56.5508 182.484 56.9968 182.298C57.4438 182.113 57.9378 182.02 58.4808 182.02C59.0238 182.02 59.5188 182.113 59.9668 182.298C60.4148 182.484 60.7988 182.745 61.1178 183.079C61.4378 183.414 61.6848 183.812 61.8598 184.274C62.0358 184.736 62.1228 185.243 62.1228 185.796" fill="#FFEACC"/>
<path fill-rule="evenodd" clip-rule="evenodd" d="M64.3736 182.111C64.4046 182.116 64.4316 182.124 64.4556 182.136C64.4796 182.149 64.5046 182.166 64.5286 182.187C64.5516 182.21 64.5776 182.238 64.6056 182.273L68.8756 187.831C68.8686 187.742 68.8626 187.656 68.8576 187.571C68.8526 187.488 68.8506 187.407 68.8506 187.332V182.103H69.7256V189.485H69.2266C69.1466 189.485 69.0816 189.471 69.0276 189.444C68.9736 189.416 68.9226 189.37 68.8706 189.304L64.6006 183.746C64.6066 183.832 64.6126 183.916 64.6156 183.998C64.6196 184.081 64.6216 184.157 64.6216 184.226V189.485H63.7456V182.103H64.2606C64.3046 182.103 64.3426 182.105 64.3736 182.111" fill="#FFEACC"/>
<path fill-rule="evenodd" clip-rule="evenodd" d="M76.7976 182.102V182.941H74.4076V189.484H73.4136V182.941H71.0176V182.102H76.7976Z" fill="#FFEACC"/>
<path fill-rule="evenodd" clip-rule="evenodd" d="M82.6344 182.102V182.916H79.0864V185.368H81.9594V186.151H79.0864V188.67H82.6404L82.6344 189.484H78.0864V182.102H82.6344Z" fill="#FFEACC"/>
<path fill-rule="evenodd" clip-rule="evenodd" d="M85.9311 185.693L83.4951 182.103H84.4891C84.5611 182.103 84.6141 182.115 84.6491 182.139C84.6831 182.163 84.7141 182.198 84.7411 182.241L86.6681 185.199C86.6921 185.127 86.7281 185.048 86.7761 184.962L88.5941 182.263C88.6221 182.215 88.6551 182.176 88.6921 182.147C88.7301 182.118 88.7741 182.103 88.8261 182.103H89.7791L87.3321 185.647L89.8611 189.485H88.8721C88.7971 189.485 88.7381 189.465 88.6951 189.425C88.6521 189.386 88.6161 189.342 88.5901 189.295L86.6111 186.198C86.5871 186.27 86.5561 186.339 86.5181 186.405L84.5921 189.295C84.5581 189.342 84.5201 189.386 84.4811 189.425C84.4411 189.465 84.3871 189.485 84.3191 189.485H83.3911L85.9311 185.693Z" fill="#FFEACC"/>
<path fill-rule="evenodd" clip-rule="evenodd" d="M96.1042 182.102V182.941H93.7142V189.484H92.7192V182.941H90.3242V182.102H96.1042Z" fill="#FFEACC"/>
<path fill-rule="evenodd" clip-rule="evenodd" d="M100.241 188.691C100.546 188.691 100.819 188.64 101.06 188.536C101.3 188.433 101.504 188.29 101.67 188.104C101.836 187.918 101.964 187.697 102.051 187.439C102.139 187.182 102.183 186.898 102.183 186.59V182.103H103.177V186.59C103.177 187.015 103.11 187.41 102.973 187.774C102.838 188.139 102.644 188.454 102.391 188.719C102.139 188.986 101.831 189.194 101.467 189.346C101.103 189.496 100.694 189.572 100.241 189.572C99.7873 189.572 99.3793 189.496 99.0153 189.346C98.6513 189.194 98.3413 188.986 98.0883 188.719C97.8343 188.454 97.6383 188.139 97.5033 187.774C97.3673 187.41 97.3003 187.015 97.3003 186.59V182.103H98.2943V186.584C98.2943 186.894 98.3373 187.177 98.4243 187.435C98.5133 187.691 98.6393 187.914 98.8063 188.099C98.9733 188.284 99.1773 188.429 99.4183 188.534C99.6613 188.639 99.9353 188.691 100.241 188.691" fill="#FFEACC"/>
<path fill-rule="evenodd" clip-rule="evenodd" d="M108.818 186.744H111.574L110.414 183.74C110.378 183.651 110.34 183.549 110.303 183.432C110.268 183.315 110.231 183.189 110.193 183.056C110.158 183.189 110.123 183.316 110.087 183.434C110.052 183.553 110.015 183.657 109.976 183.746L108.818 186.744ZM113.654 189.485H112.882C112.793 189.485 112.72 189.462 112.666 189.417C112.611 189.373 112.569 189.317 112.542 189.247L111.852 187.464H108.539L107.849 189.247C107.828 189.309 107.789 189.363 107.73 189.412C107.672 189.46 107.601 189.485 107.515 189.485H106.742L109.694 182.102H110.703L113.654 189.485Z" fill="#FFEACC"/>
<path fill-rule="evenodd" clip-rule="evenodd" d="M121.088 183.257C121.056 183.308 121.024 183.347 120.987 183.373C120.952 183.399 120.908 183.412 120.856 183.412C120.798 183.412 120.729 183.383 120.651 183.324C120.571 183.265 120.473 183.201 120.354 183.131C120.235 183.061 120.093 182.996 119.927 182.938C119.76 182.879 119.558 182.85 119.321 182.85C119.098 182.85 118.902 182.88 118.731 182.94C118.562 183 118.419 183.082 118.303 183.185C118.189 183.289 118.102 183.409 118.044 183.548C117.986 183.687 117.956 183.837 117.956 183.999C117.956 184.205 118.007 184.376 118.108 184.511C118.21 184.647 118.343 184.763 118.509 184.859C118.677 184.956 118.865 185.039 119.077 185.109C119.288 185.179 119.504 185.253 119.726 185.328C119.947 185.403 120.164 185.489 120.375 185.582C120.586 185.678 120.774 185.797 120.941 185.941C121.108 186.086 121.242 186.262 121.343 186.472C121.445 186.681 121.495 186.938 121.495 187.244C121.495 187.567 121.44 187.871 121.331 188.154C121.22 188.436 121.06 188.683 120.849 188.893C120.637 189.103 120.378 189.267 120.071 189.388C119.763 189.507 119.414 189.568 119.023 189.568C118.541 189.568 118.105 189.481 117.715 189.307C117.322 189.134 116.988 188.9 116.709 188.604L116.998 188.13C117.025 188.093 117.059 188.06 117.099 188.035C117.138 188.009 117.182 187.997 117.23 187.997C117.274 187.997 117.325 188.014 117.381 188.051C117.438 188.086 117.503 188.133 117.575 188.187C117.647 188.242 117.729 188.302 117.822 188.368C117.915 188.433 118.021 188.492 118.139 188.548C118.258 188.602 118.392 188.648 118.544 188.684C118.695 188.72 118.864 188.738 119.053 188.738C119.291 188.738 119.502 188.705 119.687 188.64C119.873 188.576 120.029 188.483 120.158 188.365C120.286 188.247 120.386 188.105 120.454 187.939C120.523 187.775 120.557 187.591 120.557 187.388C120.557 187.166 120.507 186.982 120.405 186.84C120.305 186.698 120.171 186.578 120.006 186.481C119.842 186.386 119.652 186.305 119.439 186.237C119.227 186.17 119.01 186.101 118.791 186.031C118.57 185.96 118.354 185.879 118.141 185.786C117.928 185.693 117.74 185.574 117.575 185.426C117.41 185.279 117.277 185.093 117.176 184.872C117.075 184.651 117.024 184.377 117.024 184.051C117.024 183.79 117.075 183.536 117.176 183.293C117.277 183.049 117.425 182.833 117.619 182.644C117.812 182.455 118.051 182.305 118.334 182.191C118.618 182.077 118.943 182.02 119.311 182.02C119.723 182.02 120.098 182.087 120.436 182.217C120.774 182.347 121.073 182.536 121.331 182.782L121.088 183.257Z" fill="#FFEACC"/>
<path fill-rule="evenodd" clip-rule="evenodd" d="M128.892 185.796C128.892 185.343 128.83 184.936 128.706 184.576C128.583 184.215 128.408 183.91 128.18 183.661C127.954 183.412 127.68 183.221 127.356 183.086C127.033 182.953 126.673 182.885 126.275 182.885C125.88 182.885 125.521 182.953 125.198 183.086C124.875 183.221 124.6 183.412 124.371 183.661C124.143 183.91 123.967 184.215 123.843 184.576C123.72 184.936 123.657 185.343 123.657 185.796C123.657 186.25 123.72 186.656 123.843 187.014C123.967 187.374 124.143 187.678 124.371 187.926C124.6 188.175 124.875 188.366 125.198 188.497C125.521 188.63 125.88 188.697 126.275 188.697C126.673 188.697 127.033 188.63 127.356 188.497C127.68 188.366 127.954 188.175 128.18 187.926C128.408 187.678 128.583 187.374 128.706 187.014C128.83 186.656 128.892 186.25 128.892 185.796M129.917 185.796C129.917 186.35 129.829 186.857 129.654 187.319C129.479 187.78 129.231 188.177 128.912 188.511C128.592 188.844 128.209 189.103 127.761 189.286C127.312 189.47 126.817 189.562 126.275 189.562C125.731 189.562 125.237 189.47 124.791 189.286C124.344 189.103 123.961 188.844 123.642 188.511C123.323 188.177 123.076 187.78 122.901 187.319C122.725 186.857 122.637 186.35 122.637 185.796C122.637 185.243 122.725 184.736 122.901 184.274C123.076 183.812 123.323 183.414 123.642 183.079C123.961 182.745 124.344 182.484 124.791 182.298C125.237 182.113 125.731 182.02 126.275 182.02C126.817 182.02 127.312 182.113 127.761 182.298C128.209 182.484 128.592 182.745 128.912 183.079C129.231 183.414 129.479 183.812 129.654 184.274C129.829 184.736 129.917 185.243 129.917 185.796" fill="#FFEACC"/>
<path fill-rule="evenodd" clip-rule="evenodd" d="M134.388 188.691C134.693 188.691 134.966 188.64 135.207 188.536C135.447 188.433 135.651 188.29 135.817 188.104C135.983 187.918 136.111 187.697 136.198 187.439C136.286 187.182 136.33 186.898 136.33 186.59V182.103H137.324V186.59C137.324 187.015 137.257 187.41 137.12 187.774C136.985 188.139 136.791 188.454 136.538 188.719C136.286 188.986 135.978 189.194 135.614 189.346C135.25 189.496 134.841 189.572 134.388 189.572C133.934 189.572 133.526 189.496 133.162 189.346C132.798 189.194 132.488 188.986 132.235 188.719C131.981 188.454 131.785 188.139 131.65 187.774C131.514 187.41 131.447 187.015 131.447 186.59V182.103H132.441V186.584C132.441 186.894 132.484 187.177 132.571 187.435C132.659 187.691 132.786 187.914 132.953 188.099C133.12 188.284 133.324 188.429 133.565 188.534C133.808 188.639 134.082 188.691 134.388 188.691" fill="#FFEACC"/>
<path fill-rule="evenodd" clip-rule="evenodd" d="M138.401 182.102H139.2C139.289 182.102 139.361 182.124 139.415 182.169C139.471 182.214 139.511 182.27 139.539 182.339L141.621 187.547C141.664 187.664 141.708 187.791 141.749 187.928C141.79 188.066 141.829 188.208 141.867 188.357C141.898 188.208 141.933 188.066 141.973 187.928C142.012 187.791 142.055 187.664 142.099 187.547L144.175 182.339C144.196 182.28 144.236 182.227 144.296 182.176C144.357 182.127 144.429 182.102 144.515 182.102H145.314L142.305 189.484H141.41L138.401 182.102Z" fill="#FFEACC"/>
<path fill-rule="evenodd" clip-rule="evenodd" d="M146.483 189.484H147.482V182.102H146.483V189.484Z" fill="#FFEACC"/>
<path fill-rule="evenodd" clip-rule="evenodd" d="M153.34 183.257C153.309 183.308 153.276 183.347 153.239 183.373C153.204 183.399 153.159 183.412 153.108 183.412C153.049 183.412 152.981 183.383 152.903 183.324C152.823 183.265 152.724 183.201 152.606 183.131C152.487 183.061 152.345 182.996 152.178 182.938C152.012 182.879 151.809 182.85 151.573 182.85C151.35 182.85 151.153 182.88 150.983 182.94C150.814 183 150.671 183.082 150.555 183.185C150.441 183.289 150.353 183.409 150.295 183.548C150.237 183.687 150.208 183.837 150.208 183.999C150.208 184.205 150.259 184.376 150.36 184.511C150.461 184.647 150.595 184.763 150.761 184.859C150.929 184.956 151.117 185.039 151.328 185.109C151.54 185.179 151.755 185.253 151.977 185.328C152.199 185.403 152.416 185.489 152.627 185.582C152.837 185.678 153.026 185.797 153.193 185.941C153.36 186.086 153.494 186.262 153.594 186.472C153.696 186.681 153.747 186.938 153.747 187.244C153.747 187.567 153.691 187.871 153.582 188.154C153.472 188.436 153.311 188.683 153.1 188.893C152.889 189.103 152.63 189.267 152.323 189.388C152.015 189.507 151.666 189.568 151.274 189.568C150.793 189.568 150.357 189.481 149.966 189.307C149.574 189.134 149.24 188.9 148.962 188.604L149.25 188.13C149.276 188.093 149.311 188.06 149.351 188.035C149.39 188.009 149.433 187.997 149.481 187.997C149.526 187.997 149.577 188.014 149.633 188.051C149.69 188.086 149.755 188.133 149.827 188.187C149.899 188.242 149.981 188.302 150.074 188.368C150.167 188.433 150.273 188.492 150.391 188.548C150.509 188.602 150.644 188.648 150.796 188.684C150.946 188.72 151.116 188.738 151.305 188.738C151.542 188.738 151.753 188.705 151.939 188.64C152.124 188.576 152.281 188.483 152.41 188.365C152.538 188.247 152.638 188.105 152.707 187.939C152.774 187.775 152.809 187.591 152.809 187.388C152.809 187.166 152.759 186.982 152.657 186.84C152.556 186.698 152.423 186.578 152.258 186.481C152.094 186.386 151.904 186.305 151.692 186.237C151.479 186.17 151.262 186.101 151.043 186.031C150.822 185.96 150.606 185.879 150.393 185.786C150.18 185.693 149.992 185.574 149.827 185.426C149.662 185.279 149.529 185.093 149.427 184.872C149.326 184.651 149.275 184.377 149.275 184.051C149.275 183.79 149.326 183.536 149.427 183.293C149.529 183.049 149.677 182.833 149.87 182.644C150.064 182.455 150.303 182.305 150.586 182.191C150.87 182.077 151.195 182.02 151.563 182.02C151.974 182.02 152.349 182.087 152.688 182.217C153.026 182.347 153.325 182.536 153.582 182.782L153.34 183.257Z" fill="#FFEACC"/>
<path fill-rule="evenodd" clip-rule="evenodd" d="M156.342 188.644H159.536V189.484H155.349V182.102H156.342V188.644Z" fill="#FFEACC"/>
<path fill-rule="evenodd" clip-rule="evenodd" d="M166.285 185.796C166.285 185.343 166.222 184.936 166.099 184.576C165.976 184.215 165.801 183.91 165.573 183.661C165.347 183.412 165.073 183.221 164.749 183.086C164.426 182.953 164.066 182.885 163.668 182.885C163.273 182.885 162.914 182.953 162.591 183.086C162.268 183.221 161.993 183.412 161.764 183.661C161.536 183.91 161.36 184.215 161.236 184.576C161.113 184.936 161.05 185.343 161.05 185.796C161.05 186.25 161.113 186.656 161.236 187.014C161.36 187.374 161.536 187.678 161.764 187.926C161.993 188.175 162.268 188.366 162.591 188.497C162.914 188.63 163.273 188.697 163.668 188.697C164.066 188.697 164.426 188.63 164.749 188.497C165.073 188.366 165.347 188.175 165.573 187.926C165.801 187.678 165.976 187.374 166.099 187.014C166.222 186.656 166.285 186.25 166.285 185.796M167.31 185.796C167.31 186.35 167.222 186.857 167.047 187.319C166.872 187.78 166.624 188.177 166.305 188.511C165.985 188.844 165.602 189.103 165.154 189.286C164.705 189.47 164.21 189.562 163.668 189.562C163.124 189.562 162.63 189.47 162.184 189.286C161.737 189.103 161.354 188.844 161.035 188.511C160.716 188.177 160.469 187.78 160.294 187.319C160.118 186.857 160.03 186.35 160.03 185.796C160.03 185.243 160.118 184.736 160.294 184.274C160.469 183.812 160.716 183.414 161.035 183.079C161.354 182.745 161.737 182.484 162.184 182.298C162.63 182.113 163.124 182.02 163.668 182.02C164.21 182.02 164.705 182.113 165.154 182.298C165.602 182.484 165.985 182.745 166.305 183.079C166.624 183.414 166.872 183.812 167.047 184.274C167.222 184.736 167.31 185.243 167.31 185.796" fill="#FFEACC"/>
<path fill-rule="evenodd" clip-rule="evenodd" d="M172.708 183.257C172.676 183.308 172.643 183.347 172.607 183.373C172.571 183.399 172.527 183.412 172.476 183.412C172.417 183.412 172.349 183.383 172.271 183.324C172.191 183.265 172.092 183.201 171.974 183.131C171.855 183.061 171.713 182.996 171.546 182.938C171.38 182.879 171.177 182.85 170.941 182.85C170.718 182.85 170.521 182.88 170.351 182.94C170.182 183 170.039 183.082 169.923 183.185C169.809 183.289 169.721 183.409 169.663 183.548C169.605 183.687 169.576 183.837 169.576 183.999C169.576 184.205 169.627 184.376 169.727 184.511C169.829 184.647 169.963 184.763 170.129 184.859C170.297 184.956 170.485 185.039 170.696 185.109C170.908 185.179 171.123 185.253 171.345 185.328C171.567 185.403 171.784 185.489 171.994 185.582C172.205 185.678 172.394 185.797 172.561 185.941C172.728 186.086 172.862 186.262 172.962 186.472C173.064 186.681 173.115 186.938 173.115 187.244C173.115 187.567 173.059 187.871 172.95 188.154C172.84 188.436 172.679 188.683 172.468 188.893C172.256 189.103 171.998 189.267 171.691 189.388C171.383 189.507 171.034 189.568 170.642 189.568C170.161 189.568 169.725 189.481 169.334 189.307C168.942 189.134 168.608 188.9 168.329 188.604L168.618 188.13C168.644 188.093 168.679 188.06 168.719 188.035C168.757 188.009 168.801 187.997 168.849 187.997C168.894 187.997 168.945 188.014 169.001 188.051C169.058 188.086 169.123 188.133 169.195 188.187C169.267 188.242 169.349 188.302 169.442 188.368C169.535 188.433 169.641 188.492 169.759 188.548C169.877 188.602 170.012 188.648 170.164 188.684C170.314 188.72 170.483 188.738 170.673 188.738C170.91 188.738 171.121 188.705 171.307 188.64C171.492 188.576 171.649 188.483 171.778 188.365C171.906 188.247 172.006 188.105 172.074 187.939C172.142 187.775 172.177 187.591 172.177 187.388C172.177 187.166 172.127 186.982 172.025 186.84C171.924 186.698 171.791 186.578 171.626 186.481C171.462 186.386 171.272 186.305 171.059 186.237C170.847 186.17 170.63 186.101 170.411 186.031C170.19 185.96 169.974 185.879 169.761 185.786C169.548 185.693 169.36 185.574 169.195 185.426C169.03 185.279 168.897 185.093 168.795 184.872C168.694 184.651 168.643 184.377 168.643 184.051C168.643 183.79 168.694 183.536 168.795 183.293C168.897 183.049 169.045 182.833 169.238 182.644C169.432 182.455 169.671 182.305 169.954 182.191C170.238 182.077 170.563 182.02 170.931 182.02C171.342 182.02 171.717 182.087 172.056 182.217C172.394 182.347 172.693 182.536 172.95 182.782L172.708 183.257Z" fill="#FFEACC"/>
<path fill-rule="evenodd" clip-rule="evenodd" d="M179.708 182.102V182.941H177.318V189.484H176.324V182.941H173.928V182.102H179.708Z" fill="#FFEACC"/>
<path fill-rule="evenodd" clip-rule="evenodd" d="M185.545 182.102V182.916H181.996V185.368H184.869V186.151H181.996V188.67H185.551L185.545 189.484H180.996V182.102H185.545Z" fill="#FFEACC"/>
<path fill-rule="evenodd" clip-rule="evenodd" d="M192.164 187.96C192.219 187.96 192.267 187.982 192.309 188.027L192.704 188.455C192.403 188.805 192.036 189.078 191.605 189.274C191.174 189.469 190.653 189.567 190.042 189.567C189.513 189.567 189.032 189.475 188.6 189.291C188.167 189.109 187.798 188.85 187.492 188.519C187.187 188.188 186.95 187.79 186.782 187.327C186.612 186.863 186.529 186.353 186.529 185.796C186.529 185.24 186.616 184.731 186.791 184.267C186.966 183.803 187.214 183.404 187.531 183.072C187.848 182.739 188.229 182.48 188.672 182.296C189.115 182.112 189.605 182.021 190.14 182.021C190.665 182.021 191.129 182.105 191.531 182.273C191.932 182.441 192.286 182.669 192.592 182.958L192.263 183.417C192.242 183.451 192.214 183.479 192.182 183.502C192.149 183.524 192.106 183.535 192.051 183.535C191.989 183.535 191.914 183.502 191.824 183.435C191.735 183.367 191.619 183.293 191.474 183.211C191.33 183.129 191.15 183.053 190.933 182.987C190.717 182.92 190.451 182.886 190.135 182.886C189.754 182.886 189.405 182.953 189.089 183.085C188.772 183.217 188.501 183.408 188.272 183.659C188.044 183.909 187.867 184.215 187.739 184.576C187.613 184.936 187.549 185.343 187.549 185.796C187.549 186.257 187.615 186.666 187.746 187.028C187.879 187.389 188.06 187.693 188.288 187.943C188.516 188.191 188.786 188.381 189.097 188.512C189.407 188.642 189.743 188.707 190.104 188.707C190.324 188.707 190.522 188.694 190.699 188.669C190.875 188.643 191.039 188.602 191.187 188.547C191.337 188.493 191.477 188.423 191.605 188.339C191.734 188.255 191.862 188.154 191.989 188.037C192.048 187.986 192.106 187.96 192.164 187.96" fill="#FFEACC"/>
<path fill-rule="evenodd" clip-rule="evenodd" d="M200.04 189.485H199.041V186.126H195.059V189.485H194.06V182.103H195.059V185.395H199.041V182.103H200.04V189.485Z" fill="#FFEACC"/>
</g>
</svg>
